<svg class="cal-heatmap-container" xmlns="http://www.w3.org/2000/svg" x="0" y="0" width="638px" height="150px"><style>/* Cal-HeatMap CSS */

.cal-heatmap-container {
	display: block;
}

.cal-heatmap-container .graph
{
	font-family: "Lucida Grande", Lucida, Verdana, sans-serif;
}

.cal-heatmap-container .graph-label
{
	fill: #999;
	font-size: 10px
}

.cal-heatmap-container .graph, .cal-heatmap-container .graph-legend rect {
	shape-rendering: crispedges
}

.cal-heatmap-container .graph-rect
{
	fill: #ededed
}

.cal-heatmap-container .graph-subdomain-group rect:hover
{
	stroke: #000;
	stroke-width: 1px
}

.cal-heatmap-container .subdomain-text {
	font-size: 8px;
	fill: #999;
	pointer-events: none
}

.cal-heatmap-container .hover_cursor:hover {
	cursor: pointer
}

.cal-heatmap-container .qi {
	background-color: #999;
	fill: #999
}

/*
Remove comment to apply this style to date with value equal to 0
.q0
{
	background-color: #fff;
	fill: #fff;
	stroke: #ededed
}
*/

.cal-heatmap-container .q1
{
	background-color: #dae289;
	fill: #dae289
}

.cal-heatmap-container .q2
{
	background-color: #cedb9c;
	fill: #9cc069
}

.cal-heatmap-container .q3
{
	background-color: #b5cf6b;
	fill: #669d45
}

.cal-heatmap-container .q4
{
	background-color: #637939;
	fill: #637939
}

.cal-heatmap-container .q5
{
	background-color: #3b6427;
	fill: #3b6427
}

.cal-heatmap-container rect.highlight
{
	stroke:#444;
	stroke-width:1
}

.cal-heatmap-container text.highlight
{
	fill: #444
}

.cal-heatmap-container rect.highlight-now
{
	stroke: red
}

.cal-heatmap-container text.highlight-now
{
	fill: red;
	font-weight: 800
}

.cal-heatmap-container .domain-background {
	fill: none;
	shape-rendering: crispedges
}

.ch-tooltip {
	padding: 10px;
	background: #222;
	color: #bbb;
	font-size: 12px;
	line-height: 1.4;
	width: 140px;
	position: absolute;
	z-index: 99999;
	text-align: center;
	border-radius: 2px;
	box-shadow: 2px 2px 2px rgba(0,0,0,0.2);
	display: none;
	box-sizing: border-box;
}

.ch-tooltip::after{
	position: absolute;
	width: 0;
	height: 0;
	border-color: transparent;
	border-style: solid;
	content: "";
	padding: 0;
	display: block;
	bottom: -6px;
	left: 50%;
	margin-left: -6px;
    border-width: 6px 6px 0;
    border-top-color: #222;
}
</style><svg class="graph"><svg width="638" height="111" x="0" y="0" class="graph-domain y_2021"><rect width="634" height="107" class="domain-background"></rect><svg x="0" y="0" class="graph-subdomain-group"><g><rect class=" graph-rect" width="10" height="10" x="0" y="48"></rect><title>Friday January 1, 2021</title></g><g><rect class=" graph-rect" width="10" height="10" x="0" y="60"></rect><title>Saturday January 2, 2021</title></g><g><rect class=" graph-rect r2 q2" width="10" height="10" x="0" y="72"></rect><title>4 items on Sunday January 3, 2021</title></g><g><rect class=" graph-rect" width="10" height="10" x="12" y="0"></rect><title>Monday January 4, 2021</title></g><g><rect class=" graph-rect r2 q2" width="10" height="10" x="12" y="12"></rect><title>3 items on Tuesday January 5, 2021</title></g><g><rect class=" graph-rect r3 q3" width="10" height="10" x="12" y="24"></rect><title>5 items on Wednesday January 6, 2021</title></g><g><rect class=" graph-rect" width="10" height="10" x="12" y="36"></rect><title>Thursday January 7, 2021</title></g><g><rect class=" graph-rect" width="10" height="10" x="12" y="48"></rect><title>Friday January 8, 2021</title></g><g><rect class=" graph-rect" width="10" height="10" x="12" y="60"></rect><title>Saturday January 9, 2021</title></g><g><rect class=" graph-rect r2 q2" width="10" height="10" x="12" y="72"></rect><title>3 items on Sunday January 10, 2021</title></g><g><rect class=" graph-rect" width="10" height="10" x="24" y="0"></rect><title>Monday January 11, 2021</title></g><g><rect class=" graph-rect" width="10" height="10" x="24" y="12"></rect><title>Tuesday January 12, 2021</title></g><g><rect class=" graph-rect r3 q3" width="10" height="10" x="24" y="24"></rect><title>10 items on Wednesday January 13, 2021</title></g><g><rect class=" graph-rect r3 q3" width="10" height="10" x="24" y="36"></rect><title>8 items on Thursday January 14, 2021</title></g><g><rect class=" graph-rect r6 q6" width="10" height="10" x="24" y="48"></rect><title>57 items on Friday January 15, 2021</title></g><g><rect class=" graph-rect r5 q5" width="10" height="10" x="24" y="60"></rect><title>23 items on Saturday January 16, 2021</title></g><g><rect class=" graph-rect r1 q1" width="10" height="10" x="24" y="72"></rect><title>2 items on Sunday January 17, 2021</title></g><g><rect class=" graph-rect" width="10" height="10" x="36" y="0"></rect><title>Monday January 18, 2021</title></g><g><rect class=" graph-rect r1 q1" width="10" height="10" x="36" y="12"></rect><title>1 item on Tuesday January 19, 2021</title></g><g><rect class=" graph-rect r3 q3" width="10" height="10" x="36" y="24"></rect><title>7 items on Wednesday January 20, 2021</title></g><g><rect class=" graph-rect r3 q3" width="10" height="10" x="36" y="36"></rect><title>6 items on Thursday January 21, 2021</title></g><g><rect class=" graph-rect" width="10" height="10" x="36" y="48"></rect><title>Friday January 22, 2021</title></g><g><rect class=" graph-rect r2 q2" width="10" height="10" x="36" y="60"></rect><title>4 items on Saturday January 23, 2021</title></g><g><rect class=" graph-rect" width="10" height="10" x="36" y="72"></rect><title>Sunday January 24, 2021</title></g><g><rect class=" graph-rect r1 q1" width="10" height="10" x="48" y="0"></rect><title>1 item on Monday January 25, 2021</title></g><g><rect class=" graph-rect r1 q1" width="10" height="10" x="48" y="12"></rect><title>1 item on Tuesday January 26, 2021</title></g><g><rect class=" graph-rect" width="10" height="10" x="48" y="24"></rect><title>Wednesday January 27, 2021</title></g><g><rect class=" graph-rect r4 q4" width="10" height="10" x="48" y="36"></rect><title>15 items on Thursday January 28, 2021</title></g><g><rect class=" graph-rect" width="10" height="10" x="48" y="48"></rect><title>Friday January 29, 2021</title></g><g><rect class=" graph-rect r2 q2" width="10" height="10" x="48" y="60"></rect><title>4 items on Saturday January 30, 2021</title></g><g><rect class=" graph-rect" width="10" height="10" x="48" y="72"></rect><title>Sunday January 31, 2021</title></g><g><rect class=" graph-rect r3 q3" width="10" height="10" x="60" y="0"></rect><title>7 items on Monday February 1, 2021</title></g><g><rect class=" graph-rect r3 q3" width="10" height="10" x="60" y="12"></rect><title>10 items on Tuesday February 2, 2021</title></g><g><rect class=" graph-rect r2 q2" width="10" height="10" x="60" y="24"></rect><title>4 items on Wednesday February 3, 2021</title></g><g><rect class=" graph-rect r2 q2" width="10" height="10" x="60" y="36"></rect><title>3 items on Thursday February 4, 2021</title></g><g><rect class=" graph-rect r3 q3" width="10" height="10" x="60" y="48"></rect><title>8 items on Friday February 5, 2021</title></g><g><rect class=" graph-rect r1 q1" width="10" height="10" x="60" y="60"></rect><title>1 item on Saturday February 6, 2021</title></g><g><rect class=" graph-rect" width="10" height="10" x="60" y="72"></rect><title>Sunday February 7, 2021</title></g><g><rect class=" graph-rect" width="10" height="10" x="72" y="0"></rect><title>Monday February 8, 2021</title></g><g><rect class=" graph-rect r3 q3" width="10" height="10" x="72" y="12"></rect><title>10 items on Tuesday February 9, 2021</title></g><g><rect class=" graph-rect" width="10" height="10" x="72" y="24"></rect><title>Wednesday February 10, 2021</title></g><g><rect class=" graph-rect" width="10" height="10" x="72" y="36"></rect><title>Thursday February 11, 2021</title></g><g><rect class=" graph-rect r2 q2" width="10" height="10" x="72" y="48"></rect><title>3 items on Friday February 12, 2021</title></g><g><rect class=" graph-rect" width="10" height="10" x="72" y="60"></rect><title>Saturday February 13, 2021</title></g><g><rect class=" graph-rect" width="10" height="10" x="72" y="72"></rect><title>Sunday February 14, 2021</title></g><g><rect class=" graph-rect" width="10" height="10" x="84" y="0"></rect><title>Monday February 15, 2021</title></g><g><rect class=" graph-rect" width="10" height="10" x="84" y="12"></rect><title>Tuesday February 16, 2021</title></g><g><rect class=" graph-rect" width="10" height="10" x="84" y="24"></rect><title>Wednesday February 17, 2021</title></g><g><rect class=" graph-rect" width="10" height="10" x="84" y="36"></rect><title>Thursday February 18, 2021</title></g><g><rect class=" graph-rect" width="10" height="10" x="84" y="48"></rect><title>Friday February 19, 2021</title></g><g><rect class=" graph-rect r1 q1" width="10" height="10" x="84" y="60"></rect><title>1 item on Saturday February 20, 2021</title></g><g><rect class=" graph-rect" width="10" height="10" x="84" y="72"></rect><title>Sunday February 21, 2021</title></g><g><rect class=" graph-rect" width="10" height="10" x="96" y="0"></rect><title>Monday February 22, 2021</title></g><g><rect class=" graph-rect" width="10" height="10" x="96" y="12"></rect><title>Tuesday February 23, 2021</title></g><g><rect class=" graph-rect r1 q1" width="10" height="10" x="96" y="24"></rect><title>1 item on Wednesday February 24, 2021</title></g><g><rect class=" graph-rect r1 q1" width="10" height="10" x="96" y="36"></rect><title>1 item on Thursday February 25, 2021</title></g><g><rect class=" graph-rect r2 q2" width="10" height="10" x="96" y="48"></rect><title>4 items on Friday February 26, 2021</title></g><g><rect class=" graph-rect" width="10" height="10" x="96" y="60"></rect><title>Saturday February 27, 2021</title></g><g><rect class=" graph-rect r3 q3" width="10" height="10" x="96" y="72"></rect><title>5 items on Sunday February 28, 2021</title></g><g><rect class=" graph-rect r2 q2" width="10" height="10" x="108" y="0"></rect><title>3 items on Monday March 1, 2021</title></g><g><rect class=" graph-rect" width="10" height="10" x="108" y="12"></rect><title>Tuesday March 2, 2021</title></g><g><rect class=" graph-rect" width="10" height="10" x="108" y="24"></rect><title>Wednesday March 3, 2021</title></g><g><rect class=" graph-rect r1 q1" width="10" height="10" x="108" y="36"></rect><title>1 item on Thursday March 4, 2021</title></g><g><rect class=" graph-rect now" width="10" height="10" x="108" y="48"></rect><title>Friday March 5, 2021</title></g><g><rect class=" graph-rect future" width="10" height="10" x="108" y="60"></rect><title>Saturday March 6, 2021</title></g><g><rect class=" graph-rect future" width="10" height="10" x="108" y="72"></rect><title>Sunday March 7, 2021</title></g><g><rect class=" graph-rect future" width="10" height="10" x="120" y="0"></rect><title>Monday March 8, 2021</title></g><g><rect class=" graph-rect future" width="10" height="10" x="120" y="12"></rect><title>Tuesday March 9, 2021</title></g><g><rect class=" graph-rect future" width="10" height="10" x="120" y="24"></rect><title>Wednesday March 10, 2021</title></g><g><rect class=" graph-rect future" width="10" height="10" x="120" y="36"></rect><title>Thursday March 11, 2021</title></g><g><rect class=" graph-rect future" width="10" height="10" x="120" y="48"></rect><title>Friday March 12, 2021</title></g><g><rect class=" graph-rect future" width="10" height="10" x="120" y="60"></rect><title>Saturday March 13, 2021</title></g><g><rect class=" graph-rect future" width="10" height="10" x="120" y="72"></rect><title>Sunday March 14, 2021</title></g><g><rect class=" graph-rect future" width="10" height="10" x="132" y="0"></rect><title>Monday March 15, 2021</title></g><g><rect class=" graph-rect future" width="10" height="10" x="132" y="12"></rect><title>Tuesday March 16, 2021</title></g><g><rect class=" graph-rect future" width="10" height="10" x="132" y="24"></rect><title>Wednesday March 17, 2021</title></g><g><rect class=" graph-rect future" width="10" height="10" x="132" y="36"></rect><title>Thursday March 18, 2021</title></g><g><rect class=" graph-rect future" width="10" height="10" x="132" y="48"></rect><title>Friday March 19, 2021</title></g><g><rect class=" graph-rect future" width="10" height="10" x="132" y="60"></rect><title>Saturday March 20, 2021</title></g><g><rect class=" graph-rect future" width="10" height="10" x="132" y="72"></rect><title>Sunday March 21, 2021</title></g><g><rect class=" graph-rect future" width="10" height="10" x="144" y="0"></rect><title>Monday March 22, 2021</title></g><g><rect class=" graph-rect future" width="10" height="10" x="144" y="12"></rect><title>Tuesday March 23, 2021</title></g><g><rect class=" graph-rect future" width="10" height="10" x="144" y="24"></rect><title>Wednesday March 24, 2021</title></g><g><rect class=" graph-rect future" width="10" height="10" x="144" y="36"></rect><title>Thursday March 25, 2021</title></g><g><rect class=" graph-rect future" width="10" height="10" x="144" y="48"></rect><title>Friday March 26, 2021</title></g><g><rect class=" graph-rect future" width="10" height="10" x="144" y="60"></rect><title>Saturday March 27, 2021</title></g><g><rect class=" graph-rect future" width="10" height="10" x="144" y="72"></rect><title>Sunday March 28, 2021</title></g><g><rect class=" graph-rect future" width="10" height="10" x="156" y="0"></rect><title>Monday March 29, 2021</title></g><g><rect class=" graph-rect future" width="10" height="10" x="156" y="12"></rect><title>Tuesday March 30, 2021</title></g><g><rect class=" graph-rect future" width="10" height="10" x="156" y="24"></rect><title>Wednesday March 31, 2021</title></g><g><rect class=" graph-rect future" width="10" height="10" x="156" y="36"></rect><title>Thursday April 1, 2021</title></g><g><rect class=" graph-rect future" width="10" height="10" x="156" y="48"></rect><title>Friday April 2, 2021</title></g><g><rect class=" graph-rect future" width="10" height="10" x="156" y="60"></rect><title>Saturday April 3, 2021</title></g><g><rect class=" graph-rect future" width="10" height="10" x="156" y="72"></rect><title>Sunday April 4, 2021</title></g><g><rect class=" graph-rect future" width="10" height="10" x="168" y="0"></rect><title>Monday April 5, 2021</title></g><g><rect class=" graph-rect future" width="10" height="10" x="168" y="12"></rect><title>Tuesday April 6, 2021</title></g><g><rect class=" graph-rect future" width="10" height="10" x="168" y="24"></rect><title>Wednesday April 7, 2021</title></g><g><rect class=" graph-rect future" width="10" height="10" x="168" y="36"></rect><title>Thursday April 8, 2021</title></g><g><rect class=" graph-rect future" width="10" height="10" x="168" y="48"></rect><title>Friday April 9, 2021</title></g><g><rect class=" graph-rect future" width="10" height="10" x="168" y="60"></rect><title>Saturday April 10, 2021</title></g><g><rect class=" graph-rect future" width="10" height="10" x="168" y="72"></rect><title>Sunday April 11, 2021</title></g><g><rect class=" graph-rect future" width="10" height="10" x="180" y="0"></rect><title>Monday April 12, 2021</title></g><g><rect class=" graph-rect future" width="10" height="10" x="180" y="12"></rect><title>Tuesday April 13, 2021</title></g><g><rect class=" graph-rect future" width="10" height="10" x="180" y="24"></rect><title>Wednesday April 14, 2021</title></g><g><rect class=" graph-rect future" width="10" height="10" x="180" y="36"></rect><title>Thursday April 15, 2021</title></g><g><rect class=" graph-rect future" width="10" height="10" x="180" y="48"></rect><title>Friday April 16, 2021</title></g><g><rect class=" graph-rect future" width="10" height="10" x="180" y="60"></rect><title>Saturday April 17, 2021</title></g><g><rect class=" graph-rect future" width="10" height="10" x="180" y="72"></rect><title>Sunday April 18, 2021</title></g><g><rect class=" graph-rect future" width="10" height="10" x="192" y="0"></rect><title>Monday April 19, 2021</title></g><g><rect class=" graph-rect future" width="10" height="10" x="192" y="12"></rect><title>Tuesday April 20, 2021</title></g><g><rect class=" graph-rect future" width="10" height="10" x="192" y="24"></rect><title>Wednesday April 21, 2021</title></g><g><rect class=" graph-rect future" width="10" height="10" x="192" y="36"></rect><title>Thursday April 22, 2021</title></g><g><rect class=" graph-rect future" width="10" height="10" x="192" y="48"></rect><title>Friday April 23, 2021</title></g><g><rect class=" graph-rect future" width="10" height="10" x="192" y="60"></rect><title>Saturday April 24, 2021</title></g><g><rect class=" graph-rect future" width="10" height="10" x="192" y="72"></rect><title>Sunday April 25, 2021</title></g><g><rect class=" graph-rect future" width="10" height="10" x="204" y="0"></rect><title>Monday April 26, 2021</title></g><g><rect class=" graph-rect future" width="10" height="10" x="204" y="12"></rect><title>Tuesday April 27, 2021</title></g><g><rect class=" graph-rect future" width="10" height="10" x="204" y="24"></rect><title>Wednesday April 28, 2021</title></g><g><rect class=" graph-rect future" width="10" height="10" x="204" y="36"></rect><title>Thursday April 29, 2021</title></g><g><rect class=" graph-rect future" width="10" height="10" x="204" y="48"></rect><title>Friday April 30, 2021</title></g><g><rect class=" graph-rect future" width="10" height="10" x="204" y="60"></rect><title>Saturday May 1, 2021</title></g><g><rect class=" graph-rect future" width="10" height="10" x="204" y="72"></rect><title>Sunday May 2, 2021</title></g><g><rect class=" graph-rect future" width="10" height="10" x="216" y="0"></rect><title>Monday May 3, 2021</title></g><g><rect class=" graph-rect future" width="10" height="10" x="216" y="12"></rect><title>Tuesday May 4, 2021</title></g><g><rect class=" graph-rect future" width="10" height="10" x="216" y="24"></rect><title>Wednesday May 5, 2021</title></g><g><rect class=" graph-rect future" width="10" height="10" x="216" y="36"></rect><title>Thursday May 6, 2021</title></g><g><rect class=" graph-rect future" width="10" height="10" x="216" y="48"></rect><title>Friday May 7, 2021</title></g><g><rect class=" graph-rect future" width="10" height="10" x="216" y="60"></rect><title>Saturday May 8, 2021</title></g><g><rect class=" graph-rect future" width="10" height="10" x="216" y="72"></rect><title>Sunday May 9, 2021</title></g><g><rect class=" graph-rect future" width="10" height="10" x="228" y="0"></rect><title>Monday May 10, 2021</title></g><g><rect class=" graph-rect future" width="10" height="10" x="228" y="12"></rect><title>Tuesday May 11, 2021</title></g><g><rect class=" graph-rect future" width="10" height="10" x="228" y="24"></rect><title>Wednesday May 12, 2021</title></g><g><rect class=" graph-rect future" width="10" height="10" x="228" y="36"></rect><title>Thursday May 13, 2021</title></g><g><rect class=" graph-rect future" width="10" height="10" x="228" y="48"></rect><title>Friday May 14, 2021</title></g><g><rect class=" graph-rect future" width="10" height="10" x="228" y="60"></rect><title>Saturday May 15, 2021</title></g><g><rect class=" graph-rect future" width="10" height="10" x="228" y="72"></rect><title>Sunday May 16, 2021</title></g><g><rect class=" graph-rect future" width="10" height="10" x="240" y="0"></rect><title>Monday May 17, 2021</title></g><g><rect class=" graph-rect future" width="10" height="10" x="240" y="12"></rect><title>Tuesday May 18, 2021</title></g><g><rect class=" graph-rect future" width="10" height="10" x="240" y="24"></rect><title>Wednesday May 19, 2021</title></g><g><rect class=" graph-rect future" width="10" height="10" x="240" y="36"></rect><title>Thursday May 20, 2021</title></g><g><rect class=" graph-rect future" width="10" height="10" x="240" y="48"></rect><title>Friday May 21, 2021</title></g><g><rect class=" graph-rect future" width="10" height="10" x="240" y="60"></rect><title>Saturday May 22, 2021</title></g><g><rect class=" graph-rect future" width="10" height="10" x="240" y="72"></rect><title>Sunday May 23, 2021</title></g><g><rect class=" graph-rect future" width="10" height="10" x="252" y="0"></rect><title>Monday May 24, 2021</title></g><g><rect class=" graph-rect future" width="10" height="10" x="252" y="12"></rect><title>Tuesday May 25, 2021</title></g><g><rect class=" graph-rect future" width="10" height="10" x="252" y="24"></rect><title>Wednesday May 26, 2021</title></g><g><rect class=" graph-rect future" width="10" height="10" x="252" y="36"></rect><title>Thursday May 27, 2021</title></g><g><rect class=" graph-rect future" width="10" height="10" x="252" y="48"></rect><title>Friday May 28, 2021</title></g><g><rect class=" graph-rect future" width="10" height="10" x="252" y="60"></rect><title>Saturday May 29, 2021</title></g><g><rect class=" graph-rect future" width="10" height="10" x="252" y="72"></rect><title>Sunday May 30, 2021</title></g><g><rect class=" graph-rect future" width="10" height="10" x="264" y="0"></rect><title>Monday May 31, 2021</title></g><g><rect class=" graph-rect future" width="10" height="10" x="264" y="12"></rect><title>Tuesday June 1, 2021</title></g><g><rect class=" graph-rect future" width="10" height="10" x="264" y="24"></rect><title>Wednesday June 2, 2021</title></g><g><rect class=" graph-rect future" width="10" height="10" x="264" y="36"></rect><title>Thursday June 3, 2021</title></g><g><rect class=" graph-rect future" width="10" height="10" x="264" y="48"></rect><title>Friday June 4, 2021</title></g><g><rect class=" graph-rect future" width="10" height="10" x="264" y="60"></rect><title>Saturday June 5, 2021</title></g><g><rect class=" graph-rect future" width="10" height="10" x="264" y="72"></rect><title>Sunday June 6, 2021</title></g><g><rect class=" graph-rect future" width="10" height="10" x="276" y="0"></rect><title>Monday June 7, 2021</title></g><g><rect class=" graph-rect future" width="10" height="10" x="276" y="12"></rect><title>Tuesday June 8, 2021</title></g><g><rect class=" graph-rect future" width="10" height="10" x="276" y="24"></rect><title>Wednesday June 9, 2021</title></g><g><rect class=" graph-rect future" width="10" height="10" x="276" y="36"></rect><title>Thursday June 10, 2021</title></g><g><rect class=" graph-rect future" width="10" height="10" x="276" y="48"></rect><title>Friday June 11, 2021</title></g><g><rect class=" graph-rect future" width="10" height="10" x="276" y="60"></rect><title>Saturday June 12, 2021</title></g><g><rect class=" graph-rect future" width="10" height="10" x="276" y="72"></rect><title>Sunday June 13, 2021</title></g><g><rect class=" graph-rect future" width="10" height="10" x="288" y="0"></rect><title>Monday June 14, 2021</title></g><g><rect class=" graph-rect future" width="10" height="10" x="288" y="12"></rect><title>Tuesday June 15, 2021</title></g><g><rect class=" graph-rect future" width="10" height="10" x="288" y="24"></rect><title>Wednesday June 16, 2021</title></g><g><rect class=" graph-rect future" width="10" height="10" x="288" y="36"></rect><title>Thursday June 17, 2021</title></g><g><rect class=" graph-rect future" width="10" height="10" x="288" y="48"></rect><title>Friday June 18, 2021</title></g><g><rect class=" graph-rect future" width="10" height="10" x="288" y="60"></rect><title>Saturday June 19, 2021</title></g><g><rect class=" graph-rect future" width="10" height="10" x="288" y="72"></rect><title>Sunday June 20, 2021</title></g><g><rect class=" graph-rect future" width="10" height="10" x="300" y="0"></rect><title>Monday June 21, 2021</title></g><g><rect class=" graph-rect future" width="10" height="10" x="300" y="12"></rect><title>Tuesday June 22, 2021</title></g><g><rect class=" graph-rect future" width="10" height="10" x="300" y="24"></rect><title>Wednesday June 23, 2021</title></g><g><rect class=" graph-rect future" width="10" height="10" x="300" y="36"></rect><title>Thursday June 24, 2021</title></g><g><rect class=" graph-rect future" width="10" height="10" x="300" y="48"></rect><title>Friday June 25, 2021</title></g><g><rect class=" graph-rect future" width="10" height="10" x="300" y="60"></rect><title>Saturday June 26, 2021</title></g><g><rect class=" graph-rect future" width="10" height="10" x="300" y="72"></rect><title>Sunday June 27, 2021</title></g><g><rect class=" graph-rect future" width="10" height="10" x="312" y="0"></rect><title>Monday June 28, 2021</title></g><g><rect class=" graph-rect future" width="10" height="10" x="312" y="12"></rect><title>Tuesday June 29, 2021</title></g><g><rect class=" graph-rect future" width="10" height="10" x="312" y="24"></rect><title>Wednesday June 30, 2021</title></g><g><rect class=" graph-rect future" width="10" height="10" x="312" y="36"></rect><title>Thursday July 1, 2021</title></g><g><rect class=" graph-rect future" width="10" height="10" x="312" y="48"></rect><title>Friday July 2, 2021</title></g><g><rect class=" graph-rect future" width="10" height="10" x="312" y="60"></rect><title>Saturday July 3, 2021</title></g><g><rect class=" graph-rect future" width="10" height="10" x="312" y="72"></rect><title>Sunday July 4, 2021</title></g><g><rect class=" graph-rect future" width="10" height="10" x="324" y="0"></rect><title>Monday July 5, 2021</title></g><g><rect class=" graph-rect future" width="10" height="10" x="324" y="12"></rect><title>Tuesday July 6, 2021</title></g><g><rect class=" graph-rect future" width="10" height="10" x="324" y="24"></rect><title>Wednesday July 7, 2021</title></g><g><rect class=" graph-rect future" width="10" height="10" x="324" y="36"></rect><title>Thursday July 8, 2021</title></g><g><rect class=" graph-rect future" width="10" height="10" x="324" y="48"></rect><title>Friday July 9, 2021</title></g><g><rect class=" graph-rect future" width="10" height="10" x="324" y="60"></rect><title>Saturday July 10, 2021</title></g><g><rect class=" graph-rect future" width="10" height="10" x="324" y="72"></rect><title>Sunday July 11, 2021</title></g><g><rect class=" graph-rect future" width="10" height="10" x="336" y="0"></rect><title>Monday July 12, 2021</title></g><g><rect class=" graph-rect future" width="10" height="10" x="336" y="12"></rect><title>Tuesday July 13, 2021</title></g><g><rect class=" graph-rect future" width="10" height="10" x="336" y="24"></rect><title>Wednesday July 14, 2021</title></g><g><rect class=" graph-rect future" width="10" height="10" x="336" y="36"></rect><title>Thursday July 15, 2021</title></g><g><rect class=" graph-rect future" width="10" height="10" x="336" y="48"></rect><title>Friday July 16, 2021</title></g><g><rect class=" graph-rect future" width="10" height="10" x="336" y="60"></rect><title>Saturday July 17, 2021</title></g><g><rect class=" graph-rect future" width="10" height="10" x="336" y="72"></rect><title>Sunday July 18, 2021</title></g><g><rect class=" graph-rect future" width="10" height="10" x="348" y="0"></rect><title>Monday July 19, 2021</title></g><g><rect class=" graph-rect future" width="10" height="10" x="348" y="12"></rect><title>Tuesday July 20, 2021</title></g><g><rect class=" graph-rect future" width="10" height="10" x="348" y="24"></rect><title>Wednesday July 21, 2021</title></g><g><rect class=" graph-rect future" width="10" height="10" x="348" y="36"></rect><title>Thursday July 22, 2021</title></g><g><rect class=" graph-rect future" width="10" height="10" x="348" y="48"></rect><title>Friday July 23, 2021</title></g><g><rect class=" graph-rect future" width="10" height="10" x="348" y="60"></rect><title>Saturday July 24, 2021</title></g><g><rect class=" graph-rect future" width="10" height="10" x="348" y="72"></rect><title>Sunday July 25, 2021</title></g><g><rect class=" graph-rect future" width="10" height="10" x="360" y="0"></rect><title>Monday July 26, 2021</title></g><g><rect class=" graph-rect future" width="10" height="10" x="360" y="12"></rect><title>Tuesday July 27, 2021</title></g><g><rect class=" graph-rect future" width="10" height="10" x="360" y="24"></rect><title>Wednesday July 28, 2021</title></g><g><rect class=" graph-rect future" width="10" height="10" x="360" y="36"></rect><title>Thursday July 29, 2021</title></g><g><rect class=" graph-rect future" width="10" height="10" x="360" y="48"></rect><title>Friday July 30, 2021</title></g><g><rect class=" graph-rect future" width="10" height="10" x="360" y="60"></rect><title>Saturday July 31, 2021</title></g><g><rect class=" graph-rect future" width="10" height="10" x="360" y="72"></rect><title>Sunday August 1, 2021</title></g><g><rect class=" graph-rect future" width="10" height="10" x="372" y="0"></rect><title>Monday August 2, 2021</title></g><g><rect class=" graph-rect future" width="10" height="10" x="372" y="12"></rect><title>Tuesday August 3, 2021</title></g><g><rect class=" graph-rect future" width="10" height="10" x="372" y="24"></rect><title>Wednesday August 4, 2021</title></g><g><rect class=" graph-rect future" width="10" height="10" x="372" y="36"></rect><title>Thursday August 5, 2021</title></g><g><rect class=" graph-rect future" width="10" height="10" x="372" y="48"></rect><title>Friday August 6, 2021</title></g><g><rect class=" graph-rect future" width="10" height="10" x="372" y="60"></rect><title>Saturday August 7, 2021</title></g><g><rect class=" graph-rect future" width="10" height="10" x="372" y="72"></rect><title>Sunday August 8, 2021</title></g><g><rect class=" graph-rect future" width="10" height="10" x="384" y="0"></rect><title>Monday August 9, 2021</title></g><g><rect class=" graph-rect future" width="10" height="10" x="384" y="12"></rect><title>Tuesday August 10, 2021</title></g><g><rect class=" graph-rect future" width="10" height="10" x="384" y="24"></rect><title>Wednesday August 11, 2021</title></g><g><rect class=" graph-rect future" width="10" height="10" x="384" y="36"></rect><title>Thursday August 12, 2021</title></g><g><rect class=" graph-rect future" width="10" height="10" x="384" y="48"></rect><title>Friday August 13, 2021</title></g><g><rect class=" graph-rect future" width="10" height="10" x="384" y="60"></rect><title>Saturday August 14, 2021</title></g><g><rect class=" graph-rect future" width="10" height="10" x="384" y="72"></rect><title>Sunday August 15, 2021</title></g><g><rect class=" graph-rect future" width="10" height="10" x="396" y="0"></rect><title>Monday August 16, 2021</title></g><g><rect class=" graph-rect future" width="10" height="10" x="396" y="12"></rect><title>Tuesday August 17, 2021</title></g><g><rect class=" graph-rect future" width="10" height="10" x="396" y="24"></rect><title>Wednesday August 18, 2021</title></g><g><rect class=" graph-rect future" width="10" height="10" x="396" y="36"></rect><title>Thursday August 19, 2021</title></g><g><rect class=" graph-rect future" width="10" height="10" x="396" y="48"></rect><title>Friday August 20, 2021</title></g><g><rect class=" graph-rect future" width="10" height="10" x="396" y="60"></rect><title>Saturday August 21, 2021</title></g><g><rect class=" graph-rect future" width="10" height="10" x="396" y="72"></rect><title>Sunday August 22, 2021</title></g><g><rect class=" graph-rect future" width="10" height="10" x="408" y="0"></rect><title>Monday August 23, 2021</title></g><g><rect class=" graph-rect future" width="10" height="10" x="408" y="12"></rect><title>Tuesday August 24, 2021</title></g><g><rect class=" graph-rect future" width="10" height="10" x="408" y="24"></rect><title>Wednesday August 25, 2021</title></g><g><rect class=" graph-rect future" width="10" height="10" x="408" y="36"></rect><title>Thursday August 26, 2021</title></g><g><rect class=" graph-rect future" width="10" height="10" x="408" y="48"></rect><title>Friday August 27, 2021</title></g><g><rect class=" graph-rect future" width="10" height="10" x="408" y="60"></rect><title>Saturday August 28, 2021</title></g><g><rect class=" graph-rect future" width="10" height="10" x="408" y="72"></rect><title>Sunday August 29, 2021</title></g><g><rect class=" graph-rect future" width="10" height="10" x="420" y="0"></rect><title>Monday August 30, 2021</title></g><g><rect class=" graph-rect future" width="10" height="10" x="420" y="12"></rect><title>Tuesday August 31, 2021</title></g><g><rect class=" graph-rect future" width="10" height="10" x="420" y="24"></rect><title>Wednesday September 1, 2021</title></g><g><rect class=" graph-rect future" width="10" height="10" x="420" y="36"></rect><title>Thursday September 2, 2021</title></g><g><rect class=" graph-rect future" width="10" height="10" x="420" y="48"></rect><title>Friday September 3, 2021</title></g><g><rect class=" graph-rect future" width="10" height="10" x="420" y="60"></rect><title>Saturday September 4, 2021</title></g><g><rect class=" graph-rect future" width="10" height="10" x="420" y="72"></rect><title>Sunday September 5, 2021</title></g><g><rect class=" graph-rect future" width="10" height="10" x="432" y="0"></rect><title>Monday September 6, 2021</title></g><g><rect class=" graph-rect future" width="10" height="10" x="432" y="12"></rect><title>Tuesday September 7, 2021</title></g><g><rect class=" graph-rect future" width="10" height="10" x="432" y="24"></rect><title>Wednesday September 8, 2021</title></g><g><rect class=" graph-rect future" width="10" height="10" x="432" y="36"></rect><title>Thursday September 9, 2021</title></g><g><rect class=" graph-rect future" width="10" height="10" x="432" y="48"></rect><title>Friday September 10, 2021</title></g><g><rect class=" graph-rect future" width="10" height="10" x="432" y="60"></rect><title>Saturday September 11, 2021</title></g><g><rect class=" graph-rect future" width="10" height="10" x="432" y="72"></rect><title>Sunday September 12, 2021</title></g><g><rect class=" graph-rect future" width="10" height="10" x="444" y="0"></rect><title>Monday September 13, 2021</title></g><g><rect class=" graph-rect future" width="10" height="10" x="444" y="12"></rect><title>Tuesday September 14, 2021</title></g><g><rect class=" graph-rect future" width="10" height="10" x="444" y="24"></rect><title>Wednesday September 15, 2021</title></g><g><rect class=" graph-rect future" width="10" height="10" x="444" y="36"></rect><title>Thursday September 16, 2021</title></g><g><rect class=" graph-rect future" width="10" height="10" x="444" y="48"></rect><title>Friday September 17, 2021</title></g><g><rect class=" graph-rect future" width="10" height="10" x="444" y="60"></rect><title>Saturday September 18, 2021</title></g><g><rect class=" graph-rect future" width="10" height="10" x="444" y="72"></rect><title>Sunday September 19, 2021</title></g><g><rect class=" graph-rect future" width="10" height="10" x="456" y="0"></rect><title>Monday September 20, 2021</title></g><g><rect class=" graph-rect future" width="10" height="10" x="456" y="12"></rect><title>Tuesday September 21, 2021</title></g><g><rect class=" graph-rect future" width="10" height="10" x="456" y="24"></rect><title>Wednesday September 22, 2021</title></g><g><rect class=" graph-rect future" width="10" height="10" x="456" y="36"></rect><title>Thursday September 23, 2021</title></g><g><rect class=" graph-rect future" width="10" height="10" x="456" y="48"></rect><title>Friday September 24, 2021</title></g><g><rect class=" graph-rect future" width="10" height="10" x="456" y="60"></rect><title>Saturday September 25, 2021</title></g><g><rect class=" graph-rect future" width="10" height="10" x="456" y="72"></rect><title>Sunday September 26, 2021</title></g><g><rect class=" graph-rect future" width="10" height="10" x="468" y="0"></rect><title>Monday September 27, 2021</title></g><g><rect class=" graph-rect future" width="10" height="10" x="468" y="12"></rect><title>Tuesday September 28, 2021</title></g><g><rect class=" graph-rect future" width="10" height="10" x="468" y="24"></rect><title>Wednesday September 29, 2021</title></g><g><rect class=" graph-rect future" width="10" height="10" x="468" y="36"></rect><title>Thursday September 30, 2021</title></g><g><rect class=" graph-rect future" width="10" height="10" x="468" y="48"></rect><title>Friday October 1, 2021</title></g><g><rect class=" graph-rect future" width="10" height="10" x="468" y="60"></rect><title>Saturday October 2, 2021</title></g><g><rect class=" graph-rect future" width="10" height="10" x="468" y="72"></rect><title>Sunday October 3, 2021</title></g><g><rect class=" graph-rect future" width="10" height="10" x="480" y="0"></rect><title>Monday October 4, 2021</title></g><g><rect class=" graph-rect future" width="10" height="10" x="480" y="12"></rect><title>Tuesday October 5, 2021</title></g><g><rect class=" graph-rect future" width="10" height="10" x="480" y="24"></rect><title>Wednesday October 6, 2021</title></g><g><rect class=" graph-rect future" width="10" height="10" x="480" y="36"></rect><title>Thursday October 7, 2021</title></g><g><rect class=" graph-rect future" width="10" height="10" x="480" y="48"></rect><title>Friday October 8, 2021</title></g><g><rect class=" graph-rect future" width="10" height="10" x="480" y="60"></rect><title>Saturday October 9, 2021</title></g><g><rect class=" graph-rect future" width="10" height="10" x="480" y="72"></rect><title>Sunday October 10, 2021</title></g><g><rect class=" graph-rect future" width="10" height="10" x="492" y="0"></rect><title>Monday October 11, 2021</title></g><g><rect class=" graph-rect future" width="10" height="10" x="492" y="12"></rect><title>Tuesday October 12, 2021</title></g><g><rect class=" graph-rect future" width="10" height="10" x="492" y="24"></rect><title>Wednesday October 13, 2021</title></g><g><rect class=" graph-rect future" width="10" height="10" x="492" y="36"></rect><title>Thursday October 14, 2021</title></g><g><rect class=" graph-rect future" width="10" height="10" x="492" y="48"></rect><title>Friday October 15, 2021</title></g><g><rect class=" graph-rect future" width="10" height="10" x="492" y="60"></rect><title>Saturday October 16, 2021</title></g><g><rect class=" graph-rect future" width="10" height="10" x="492" y="72"></rect><title>Sunday October 17, 2021</title></g><g><rect class=" graph-rect future" width="10" height="10" x="504" y="0"></rect><title>Monday October 18, 2021</title></g><g><rect class=" graph-rect future" width="10" height="10" x="504" y="12"></rect><title>Tuesday October 19, 2021</title></g><g><rect class=" graph-rect future" width="10" height="10" x="504" y="24"></rect><title>Wednesday October 20, 2021</title></g><g><rect class=" graph-rect future" width="10" height="10" x="504" y="36"></rect><title>Thursday October 21, 2021</title></g><g><rect class=" graph-rect future" width="10" height="10" x="504" y="48"></rect><title>Friday October 22, 2021</title></g><g><rect class=" graph-rect future" width="10" height="10" x="504" y="60"></rect><title>Saturday October 23, 2021</title></g><g><rect class=" graph-rect future" width="10" height="10" x="504" y="72"></rect><title>Sunday October 24, 2021</title></g><g><rect class=" graph-rect future" width="10" height="10" x="516" y="0"></rect><title>Monday October 25, 2021</title></g><g><rect class=" graph-rect future" width="10" height="10" x="516" y="12"></rect><title>Tuesday October 26, 2021</title></g><g><rect class=" graph-rect future" width="10" height="10" x="516" y="24"></rect><title>Wednesday October 27, 2021</title></g><g><rect class=" graph-rect future" width="10" height="10" x="516" y="36"></rect><title>Thursday October 28, 2021</title></g><g><rect class=" graph-rect future" width="10" height="10" x="516" y="48"></rect><title>Friday October 29, 2021</title></g><g><rect class=" graph-rect future" width="10" height="10" x="516" y="60"></rect><title>Saturday October 30, 2021</title></g><g><rect class=" graph-rect future" width="10" height="10" x="516" y="72"></rect><title>Sunday October 31, 2021</title></g><g><rect class=" graph-rect future" width="10" height="10" x="528" y="0"></rect><title>Monday November 1, 2021</title></g><g><rect class=" graph-rect future" width="10" height="10" x="528" y="12"></rect><title>Tuesday November 2, 2021</title></g><g><rect class=" graph-rect future" width="10" height="10" x="528" y="24"></rect><title>Wednesday November 3, 2021</title></g><g><rect class=" graph-rect future" width="10" height="10" x="528" y="36"></rect><title>Thursday November 4, 2021</title></g><g><rect class=" graph-rect future" width="10" height="10" x="528" y="48"></rect><title>Friday November 5, 2021</title></g><g><rect class=" graph-rect future" width="10" height="10" x="528" y="60"></rect><title>Saturday November 6, 2021</title></g><g><rect class=" graph-rect future" width="10" height="10" x="528" y="72"></rect><title>Sunday November 7, 2021</title></g><g><rect class=" graph-rect future" width="10" height="10" x="540" y="0"></rect><title>Monday November 8, 2021</title></g><g><rect class=" graph-rect future" width="10" height="10" x="540" y="12"></rect><title>Tuesday November 9, 2021</title></g><g><rect class=" graph-rect future" width="10" height="10" x="540" y="24"></rect><title>Wednesday November 10, 2021</title></g><g><rect class=" graph-rect future" width="10" height="10" x="540" y="36"></rect><title>Thursday November 11, 2021</title></g><g><rect class=" graph-rect future" width="10" height="10" x="540" y="48"></rect><title>Friday November 12, 2021</title></g><g><rect class=" graph-rect future" width="10" height="10" x="540" y="60"></rect><title>Saturday November 13, 2021</title></g><g><rect class=" graph-rect future" width="10" height="10" x="540" y="72"></rect><title>Sunday November 14, 2021</title></g><g><rect class=" graph-rect future" width="10" height="10" x="552" y="0"></rect><title>Monday November 15, 2021</title></g><g><rect class=" graph-rect future" width="10" height="10" x="552" y="12"></rect><title>Tuesday November 16, 2021</title></g><g><rect class=" graph-rect future" width="10" height="10" x="552" y="24"></rect><title>Wednesday November 17, 2021</title></g><g><rect class=" graph-rect future" width="10" height="10" x="552" y="36"></rect><title>Thursday November 18, 2021</title></g><g><rect class=" graph-rect future" width="10" height="10" x="552" y="48"></rect><title>Friday November 19, 2021</title></g><g><rect class=" graph-rect future" width="10" height="10" x="552" y="60"></rect><title>Saturday November 20, 2021</title></g><g><rect class=" graph-rect future" width="10" height="10" x="552" y="72"></rect><title>Sunday November 21, 2021</title></g><g><rect class=" graph-rect future" width="10" height="10" x="564" y="0"></rect><title>Monday November 22, 2021</title></g><g><rect class=" graph-rect future" width="10" height="10" x="564" y="12"></rect><title>Tuesday November 23, 2021</title></g><g><rect class=" graph-rect future" width="10" height="10" x="564" y="24"></rect><title>Wednesday November 24, 2021</title></g><g><rect class=" graph-rect future" width="10" height="10" x="564" y="36"></rect><title>Thursday November 25, 2021</title></g><g><rect class=" graph-rect future" width="10" height="10" x="564" y="48"></rect><title>Friday November 26, 2021</title></g><g><rect class=" graph-rect future" width="10" height="10" x="564" y="60"></rect><title>Saturday November 27, 2021</title></g><g><rect class=" graph-rect future" width="10" height="10" x="564" y="72"></rect><title>Sunday November 28, 2021</title></g><g><rect class=" graph-rect future" width="10" height="10" x="576" y="0"></rect><title>Monday November 29, 2021</title></g><g><rect class=" graph-rect future" width="10" height="10" x="576" y="12"></rect><title>Tuesday November 30, 2021</title></g><g><rect class=" graph-rect future" width="10" height="10" x="576" y="24"></rect><title>Wednesday December 1, 2021</title></g><g><rect class=" graph-rect future" width="10" height="10" x="576" y="36"></rect><title>Thursday December 2, 2021</title></g><g><rect class=" graph-rect future" width="10" height="10" x="576" y="48"></rect><title>Friday December 3, 2021</title></g><g><rect class=" graph-rect future" width="10" height="10" x="576" y="60"></rect><title>Saturday December 4, 2021</title></g><g><rect class=" graph-rect future" width="10" height="10" x="576" y="72"></rect><title>Sunday December 5, 2021</title></g><g><rect class=" graph-rect future" width="10" height="10" x="588" y="0"></rect><title>Monday December 6, 2021</title></g><g><rect class=" graph-rect future" width="10" height="10" x="588" y="12"></rect><title>Tuesday December 7, 2021</title></g><g><rect class=" graph-rect future" width="10" height="10" x="588" y="24"></rect><title>Wednesday December 8, 2021</title></g><g><rect class=" graph-rect future" width="10" height="10" x="588" y="36"></rect><title>Thursday December 9, 2021</title></g><g><rect class=" graph-rect future" width="10" height="10" x="588" y="48"></rect><title>Friday December 10, 2021</title></g><g><rect class=" graph-rect future" width="10" height="10" x="588" y="60"></rect><title>Saturday December 11, 2021</title></g><g><rect class=" graph-rect future" width="10" height="10" x="588" y="72"></rect><title>Sunday December 12, 2021</title></g><g><rect class=" graph-rect future" width="10" height="10" x="600" y="0"></rect><title>Monday December 13, 2021</title></g><g><rect class=" graph-rect future" width="10" height="10" x="600" y="12"></rect><title>Tuesday December 14, 2021</title></g><g><rect class=" graph-rect future" width="10" height="10" x="600" y="24"></rect><title>Wednesday December 15, 2021</title></g><g><rect class=" graph-rect future" width="10" height="10" x="600" y="36"></rect><title>Thursday December 16, 2021</title></g><g><rect class=" graph-rect future" width="10" height="10" x="600" y="48"></rect><title>Friday December 17, 2021</title></g><g><rect class=" graph-rect future" width="10" height="10" x="600" y="60"></rect><title>Saturday December 18, 2021</title></g><g><rect class=" graph-rect future" width="10" height="10" x="600" y="72"></rect><title>Sunday December 19, 2021</title></g><g><rect class=" graph-rect future" width="10" height="10" x="612" y="0"></rect><title>Monday December 20, 2021</title></g><g><rect class=" graph-rect future" width="10" height="10" x="612" y="12"></rect><title>Tuesday December 21, 2021</title></g><g><rect class=" graph-rect future" width="10" height="10" x="612" y="24"></rect><title>Wednesday December 22, 2021</title></g><g><rect class=" graph-rect future" width="10" height="10" x="612" y="36"></rect><title>Thursday December 23, 2021</title></g><g><rect class=" graph-rect future" width="10" height="10" x="612" y="48"></rect><title>Friday December 24, 2021</title></g><g><rect class=" graph-rect future" width="10" height="10" x="612" y="60"></rect><title>Saturday December 25, 2021</title></g><g><rect class=" graph-rect future" width="10" height="10" x="612" y="72"></rect><title>Sunday December 26, 2021</title></g><g><rect class=" graph-rect future" width="10" height="10" x="624" y="0"></rect><title>Monday December 27, 2021</title></g><g><rect class=" graph-rect future" width="10" height="10" x="624" y="12"></rect><title>Tuesday December 28, 2021</title></g><g><rect class=" graph-rect future" width="10" height="10" x="624" y="24"></rect><title>Wednesday December 29, 2021</title></g><g><rect class=" graph-rect future" width="10" height="10" x="624" y="36"></rect><title>Thursday December 30, 2021</title></g><g><rect class=" graph-rect future" width="10" height="10" x="624" y="48"></rect><title>Friday December 31, 2021</title></g></svg><text class="graph-label" y="96.5" x="318" text-anchor="middle" dominant-baseline="middle">2021</text></svg></svg><svg x="0" y="117" class="graph-legend" height="10" width="70"><g><rect width="10" height="10" x="0" class="r1 q1" fill-opacity="0"><title>less than 2 items</title></rect><rect width="10" height="10" x="12" class="r2 q2" fill-opacity="0"><title>between 2 and 4 items</title></rect><rect width="10" height="10" x="24" class="r3 q3" fill-opacity="0"><title>between 4 and 10 items</title></rect><rect width="10" height="10" x="36" class="r4 q4" fill-opacity="0"><title>between 10 and 20 items</title></rect><rect width="10" height="10" x="48" class="r5 q5" fill-opacity="0"><title>between 20 and 40 items</title></rect><rect width="10" height="10" x="60" class="r6 q6" fill-opacity="0"><title>more than 40 items</title></rect></g></svg></svg>