<svg class="cal-heatmap-container" xmlns="http://www.w3.org/2000/svg" x="0" y="0"><style>/* Cal-HeatMap CSS */

.cal-heatmap-container {
        display: block;
}

.cal-heatmap-container .graph
{
        font-family: "Lucida Grande", Lucida, Verdana, sans-serif;
}

.cal-heatmap-container .graph-label
{
        fill: #999;
        font-size: 10px
}

.cal-heatmap-container .graph, .cal-heatmap-container .graph-legend rect {
        shape-rendering: crispedges
}

.cal-heatmap-container .graph-rect
{
        fill: #ededed
}

.cal-heatmap-container .graph-subdomain-group rect:hover
{
        stroke: #000;
        stroke-width: 1px
}

.cal-heatmap-container .subdomain-text {
        font-size: 8px;
        fill: #999;
        pointer-events: none
}

.cal-heatmap-container .hover_cursor:hover {
        cursor: pointer
}

.cal-heatmap-container .qi {
        background-color: #999;
        fill: #999
}

/*
Remove comment to apply this style to date with value equal to 0
.q0
{
        background-color: #fff;
        fill: #fff;
        stroke: #ededed
}
*/

.cal-heatmap-container .q1
{
        background-color: #dae289;
        fill: #dae289
}

.cal-heatmap-container .q2
{
        background-color: #cedb9c;
        fill: #9cc069
}

.cal-heatmap-container .q3
{
        background-color: #b5cf6b;
        fill: #669d45
}

.cal-heatmap-container .q4
{
        background-color: #637939;
        fill: #637939
}

.cal-heatmap-container .q5
{
        background-color: #3b6427;
        fill: #3b6427
}

.cal-heatmap-container rect.highlight
{
        stroke:#444;
        stroke-width:1
}

.cal-heatmap-container text.highlight
{
        fill: #444
}

.cal-heatmap-container rect.highlight-now
{
        stroke: red
}

.cal-heatmap-container text.highlight-now
{
        fill: red;
        font-weight: 800
}

.cal-heatmap-container .domain-background {
        fill: none;
        shape-rendering: crispedges
}

.ch-tooltip {
        padding: 10px;
        background: #222;
        color: #bbb;
        font-size: 12px;
        line-height: 1.4;
        width: 140px;
        position: absolute;
        z-index: 99999;
        text-align: center;
        border-radius: 2px;
        box-shadow: 2px 2px 2px rgba(0,0,0,0.2);
        display: none;
        box-sizing: border-box;
}

.ch-tooltip::after{
        position: absolute;
        width: 0;
        height: 0;
        border-color: transparent;
        border-style: solid;
        content: "";
        padding: 0;
        display: block;
        bottom: -6px;
        left: 50%;
        margin-left: -6px;
    border-width: 6px 6px 0;
    border-top-color: #222;
}
</style><svg class="graph"><svg width="638" height="111" x="0" y="0" class="graph-domain y_2020"><rect width="634" height="107" class="domain-background"></rect><svg x="0" y="0" class="graph-subdomain-group"><g><rect class=" graph-rect" width="10" height="10" x="0" y="24"></rect><title>Wednesday January 1, 2020</title></g><g><rect class=" graph-rect" width="10" height="10" x="0" y="36"></rect><title>Thursday January 2, 2020</title></g><g><rect class=" graph-rect" width="10" height="10" x="0" y="48"></rect><title>Friday January 3, 2020</title></g><g><rect class=" graph-rect" width="10" height="10" x="0" y="60"></rect><title>Saturday January 4, 2020</title></g><g><rect class=" graph-rect" width="10" height="10" x="0" y="72"></rect><title>Sunday January 5, 2020</title></g><g><rect class=" graph-rect" width="10" height="10" x="12" y="0"></rect><title>Monday January 6, 2020</title></g><g><rect class=" graph-rect" width="10" height="10" x="12" y="12"></rect><title>Tuesday January 7, 2020</title></g><g><rect class=" graph-rect" width="10" height="10" x="12" y="24"></rect><title>Wednesday January 8, 2020</title></g><g><rect class=" graph-rect" width="10" height="10" x="12" y="36"></rect><title>Thursday January 9, 2020</title></g><g><rect class=" graph-rect" width="10" height="10" x="12" y="48"></rect><title>Friday January 10, 2020</title></g><g><rect class=" graph-rect" width="10" height="10" x="12" y="60"></rect><title>Saturday January 11, 2020</title></g><g><rect class=" graph-rect" width="10" height="10" x="12" y="72"></rect><title>Sunday January 12, 2020</title></g><g><rect class=" graph-rect" width="10" height="10" x="24" y="0"></rect><title>Monday January 13, 2020</title></g><g><rect class=" graph-rect" width="10" height="10" x="24" y="12"></rect><title>Tuesday January 14, 2020</title></g><g><rect class=" graph-rect" width="10" height="10" x="24" y="24"></rect><title>Wednesday January 15, 2020</title></g><g><rect class=" graph-rect" width="10" height="10" x="24" y="36"></rect><title>Thursday January 16, 2020</title></g><g><rect class=" graph-rect" width="10" height="10" x="24" y="48"></rect><title>Friday January 17, 2020</title></g><g><rect class=" graph-rect" width="10" height="10" x="24" y="60"></rect><title>Saturday January 18, 2020</title></g><g><rect class=" graph-rect" width="10" height="10" x="24" y="72"></rect><title>Sunday January 19, 2020</title></g><g><rect class=" graph-rect" width="10" height="10" x="36" y="0"></rect><title>Monday January 20, 2020</title></g><g><rect class=" graph-rect" width="10" height="10" x="36" y="12"></rect><title>Tuesday January 21, 2020</title></g><g><rect class=" graph-rect" width="10" height="10" x="36" y="24"></rect><title>Wednesday January 22, 2020</title></g><g><rect class=" graph-rect" width="10" height="10" x="36" y="36"></rect><title>Thursday January 23, 2020</title></g><g><rect class=" graph-rect" width="10" height="10" x="36" y="48"></rect><title>Friday January 24, 2020</title></g><g><rect class=" graph-rect" width="10" height="10" x="36" y="60"></rect><title>Saturday January 25, 2020</title></g><g><rect class=" graph-rect" width="10" height="10" x="36" y="72"></rect><title>Sunday January 26, 2020</title></g><g><rect class=" graph-rect" width="10" height="10" x="48" y="0"></rect><title>Monday January 27, 2020</title></g><g><rect class=" graph-rect" width="10" height="10" x="48" y="12"></rect><title>Tuesday January 28, 2020</title></g><g><rect class=" graph-rect" width="10" height="10" x="48" y="24"></rect><title>Wednesday January 29, 2020</title></g><g><rect class=" graph-rect" width="10" height="10" x="48" y="36"></rect><title>Thursday January 30, 2020</title></g><g><rect class=" graph-rect" width="10" height="10" x="48" y="48"></rect><title>Friday January 31, 2020</title></g><g><rect class=" graph-rect" width="10" height="10" x="48" y="60"></rect><title>Saturday February 1, 2020</title></g><g><rect class=" graph-rect" width="10" height="10" x="48" y="72"></rect><title>Sunday February 2, 2020</title></g><g><rect class=" graph-rect" width="10" height="10" x="60" y="0"></rect><title>Monday 
February 3, 2020</title></g><g><rect class=" graph-rect" width="10" height="10" x="60" y="12"></rect><title>Tuesday February 4, 2020</title></g><g><rect class=" graph-rect" width="10" height="10" x="60" y="24"></rect><title>Wednesday February 5, 2020</title></g><g><rect class=" graph-rect" width="10" height="10" x="60" y="36"></rect><title>Thursday February 6, 2020</title></g><g><rect class=" graph-rect" width="10" height="10" x="60" y="48"></rect><title>Friday February 7, 2020</title></g><g><rect class=" graph-rect r3 q3" width="10" height="10" x="60" y="60"></rect><title>8 items on Saturday February 8, 2020</title></g><g><rect class=" graph-rect" width="10" height="10" x="60" y="72"></rect><title>Sunday February 9, 2020</title></g><g><rect class=" graph-rect" width="10" height="10" x="72" y="0"></rect><title>Monday February 10, 2020</title></g><g><rect class=" graph-rect r3 q3" width="10" height="10" x="72" y="12"></rect><title>6 items on Tuesday February 11, 2020</title></g><g><rect class=" graph-rect" width="10" height="10" x="72" y="24"></rect><title>Wednesday February 12, 2020</title></g><g><rect class=" graph-rect r1 q1" width="10" height="10" x="72" y="36"></rect><title>1 item on Thursday February 13, 2020</title></g><g><rect class=" graph-rect r1 q1" width="10" height="10" x="72" y="48"></rect><title>1 item on Friday February 14, 2020</title></g><g><rect class=" graph-rect r3 q3" width="10" height="10" x="72" y="60"></rect><title>8 items on Saturday February 15, 2020</title></g><g><rect class=" graph-rect" width="10" height="10" x="72" y="72"></rect><title>Sunday February 16, 2020</title></g><g><rect class=" graph-rect r1 q1" width="10" height="10" x="84" y="0"></rect><title>1 item on Monday February 17, 2020</title></g><g><rect class=" graph-rect" width="10" height="10" x="84" y="12"></rect><title>Tuesday February 18, 2020</title></g><g><rect class=" graph-rect r5 q5" width="10" height="10" x="84" y="24"></rect><title>39 items on Wednesday February 19, 2020</title></g><g><rect class=" graph-rect" width="10" height="10" x="84" y="36"></rect><title>Thursday February 20, 2020</title></g><g><rect class=" graph-rect" width="10" height="10" x="84" y="48"></rect><title>Friday February 21, 2020</title></g><g><rect class=" graph-rect" width="10" height="10" x="84" y="60"></rect><title>Saturday February 22, 2020</title></g><g><rect class=" graph-rect" width="10" height="10" x="84" y="72"></rect><title>Sunday February 23, 2020</title></g><g><rect class=" graph-rect" width="10" height="10" x="96" y="0"></rect><title>Monday February 24, 2020</title></g><g><rect class=" graph-rect r1 q1" width="10" height="10" x="96" y="12"></rect><title>1 item on Tuesday February 25, 2020</title></g><g><rect class=" graph-rect r1 q1" width="10" height="10" x="96" y="24"></rect><title>1 item on Wednesday February 26, 2020</title></g><g><rect class=" graph-rect r1 q1" width="10" height="10" x="96" y="36"></rect><title>2 items on Thursday February 27, 2020</title></g><g><rect class=" graph-rect r5 q5" width="10" height="10" x="96" y="48"></rect><title>29 items on Friday February 28, 2020</title></g><g><rect class=" graph-rect" width="10" height="10" x="96" y="60"></rect><title>Saturday February 29, 2020</title></g><g><rect class=" graph-rect r3 q3" width="10" height="10" x="96" y="72"></rect><title>6 items on Sunday March 1, 2020</title></g><g><rect class=" graph-rect" width="10" height="10" x="108" y="0"></rect><title>Monday March 2, 2020</title></g><g><rect class=" graph-rect r1 q1" width="10" height="10" x="108" y="12"></rect><title>1 item on Tuesday March 3, 2020</title></g><g><rect class=" graph-rect r4 q4" width="10" height="10" x="108" y="24"></rect><title>11 items on Wednesday March 4, 2020</title></g><g><rect class=" graph-rect r2 q2" width="10" height="10" x="108" y="36"></rect><title>4 items on Thursday March 5, 2020</title></g><g><rect class=" graph-rect r5 q5" width="10" height="10" x="108" y="48"></rect><title>37 items on Friday March 6, 2020</title></g><g><rect class=" graph-rect r3 q3" width="10" height="10" x="108" y="60"></rect><title>8 items on Saturday March 7, 2020</title></g><g><rect class=" graph-rect" width="10" height="10" x="108" y="72"></rect><title>Sunday March 8, 2020</title></g><g><rect class=" graph-rect r2 q2" width="10" height="10" x="120" y="0"></rect><title>3 items on Monday March 9, 2020</title></g><g><rect class=" graph-rect r2 q2" width="10" height="10" x="120" y="12"></rect><title>4 items on Tuesday March 10, 2020</title></g><g><rect class=" graph-rect r3 q3" width="10" height="10" x="120" y="24"></rect><title>9 items on Wednesday March 11, 2020</title></g><g><rect class=" graph-rect r2 q2" width="10" height="10" x="120" y="36"></rect><title>4 items on Thursday March 12, 2020</title></g><g><rect class=" graph-rect" width="10" height="10" x="120" y="48"></rect><title>Friday March 13, 2020</title></g><g><rect class=" graph-rect" width="10" height="10" x="120" y="60"></rect><title>Saturday March 14, 2020</title></g><g><rect class=" graph-rect r1 q1" width="10" height="10" x="120" y="72"></rect><title>2 items on Sunday March 15, 2020</title></g><g><rect class=" graph-rect" width="10" height="10" x="132" y="0"></rect><title>Monday March 16, 2020</title></g><g><rect class=" graph-rect" width="10" height="10" x="132" y="12"></rect><title>Tuesday March 17, 2020</title></g><g><rect class=" graph-rect" width="10" height="10" x="132" y="24"></rect><title>Wednesday March 18, 2020</title></g><g><rect class=" graph-rect" width="10" height="10" x="132" y="36"></rect><title>Thursday March 19, 2020</title></g><g><rect class=" graph-rect" width="10" height="10" x="132" y="48"></rect><title>Friday March 20, 2020</title></g><g><rect class=" graph-rect" width="10" height="10" x="132" y="60"></rect><title>Saturday March 21, 2020</title></g><g><rect class=" graph-rect r1 q1" width="10" height="10" x="132" y="72"></rect><title>2 items on Sunday March 22, 2020</title></g><g><rect class=" graph-rect" width="10" height="10" x="144" y="0"></rect><title>Monday March 23, 2020</title></g><g><rect class=" graph-rect" width="10" height="10" x="144" y="12"></rect><title>Tuesday March 24, 2020</title></g><g><rect class=" graph-rect" width="10" height="10" x="144" y="24"></rect><title>Wednesday March 25, 2020</title></g><g><rect class=" graph-rect" width="10" height="10" x="144" y="36"></rect><title>Thursday March 26, 2020</title></g><g><rect class=" graph-rect" width="10" height="10" x="144" y="48"></rect><title>Friday March 27, 2020</title></g><g><rect class=" graph-rect" width="10" height="10" x="144" y="60"></rect><title>Saturday March 28, 2020</title></g><g><rect class=" graph-rect r3 q3" width="10" height="10" x="144" y="72"></rect><title>5 items on Sunday March 29, 2020</title></g><g><rect class=" graph-rect" width="10" height="10" x="156" y="0"></rect><title>Monday March 30, 2020</title></g><g><rect class=" graph-rect r4 q4" width="10" height="10" x="156" y="12"></rect><title>12 items on Tuesday March 31, 2020</title></g><g><rect class=" graph-rect r5 q5" width="10" height="10" x="156" y="24"></rect><title>24 items on Wednesday April 1, 2020</title></g><g><rect class=" graph-rect" width="10" height="10" x="156" y="36"></rect><title>Thursday April 2, 2020</title></g><g><rect class=" graph-rect" width="10" height="10" x="156" y="48"></rect><title>Friday April 3, 2020</title></g><g><rect class=" graph-rect" width="10" height="10" x="156" y="60"></rect><title>Saturday April 4, 2020</title></g><g><rect class=" graph-rect" width="10" height="10" x="156" y="72"></rect><title>Sunday April 5, 2020</title></g><g><rect class=" graph-rect" width="10" height="10" x="168" y="0"></rect><title>Monday April 6, 2020</title></g><g><rect class=" graph-rect" width="10" height="10" x="168" y="12"></rect><title>Tuesday April 7, 2020</title></g><g><rect class=" graph-rect r3 q3" width="10" height="10" x="168" y="24"></rect><title>7 items on Wednesday April 8, 2020</title></g><g><rect class=" graph-rect" width="10" height="10" x="168" y="36"></rect><title>Thursday April 9, 2020</title></g><g><rect class=" graph-rect" width="10" height="10" x="168" y="48"></rect><title>Friday April 10, 2020</title></g><g><rect class=" graph-rect" width="10" height="10" x="168" y="60"></rect><title>Saturday April 11, 2020</title></g><g><rect class=" graph-rect" width="10" height="10" x="168" y="72"></rect><title>Sunday April 12, 2020</title></g><g><rect class=" graph-rect r3 q3" width="10" height="10" x="180" y="0"></rect><title>6 items on Monday April 13, 2020</title></g><g><rect class=" graph-rect" width="10" height="10" x="180" y="12"></rect><title>Tuesday April 14, 2020</title></g><g><rect class=" graph-rect r1 q1" width="10" height="10" x="180" y="24"></rect><title>1 item on Wednesday April 15, 2020</title></g><g><rect class=" graph-rect" width="10" height="10" x="180" y="36"></rect><title>Thursday April 16, 2020</title></g><g><rect class=" graph-rect" width="10" height="10" x="180" y="48"></rect><title>Friday April 17, 2020</title></g><g><rect class=" graph-rect" width="10" height="10" x="180" y="60"></rect><title>Saturday April 18, 2020</title></g><g><rect class=" graph-rect" width="10" height="10" x="180" y="72"></rect><title>Sunday April 19, 2020</title></g><g><rect class=" graph-rect" width="10" height="10" x="192" y="0"></rect><title>Monday April 20, 2020</title></g><g><rect class=" graph-rect" width="10" height="10" x="192" y="12"></rect><title>Tuesday April 21, 2020</title></g><g><rect class=" graph-rect r4 q4" width="10" height="10" x="192" y="24"></rect><title>20 items on Wednesday April 22, 2020</title></g><g><rect class=" graph-rect" width="10" height="10" x="192" y="36"></rect><title>Thursday April 23, 2020</title></g><g><rect class=" graph-rect" width="10" height="10" x="192" y="48"></rect><title>Friday April 24, 2020</title></g><g><rect class=" graph-rect" width="10" height="10" x="192" y="60"></rect><title>Saturday April 25, 2020</title></g><g><rect class=" graph-rect" width="10" height="10" x="192" y="72"></rect><title>Sunday April 26, 2020</title></g><g><rect class=" graph-rect r3 q3" width="10" height="10" x="204" y="0"></rect><title>7 items on Monday April 27, 2020</title></g><g><rect class=" graph-rect r4 q4" width="10" height="10" x="204" y="12"></rect><title>12 items on Tuesday April 28, 2020</title></g><g><rect class=" graph-rect" width="10" height="10" x="204" y="24"></rect><title>Wednesday April 29, 2020</title></g><g><rect class=" graph-rect" width="10" height="10" x="204" y="36"></rect><title>Thursday April 30, 2020</title></g><g><rect class=" graph-rect" width="10" height="10" x="204" y="48"></rect><title>Friday May 1, 2020</title></g><g><rect class=" graph-rect" width="10" height="10" x="204" y="60"></rect><title>Saturday May 2, 2020</title></g><g><rect class=" graph-rect" width="10" height="10" x="204" y="72"></rect><title>Sunday May 3, 2020</title></g><g><rect class=" 
graph-rect" width="10" height="10" x="216" y="0"></rect><title>Monday May 4, 2020</title></g><g><rect class=" graph-rect" width="10" height="10" x="216" y="12"></rect><title>Tuesday May 5, 2020</title></g><g><rect class=" graph-rect r3 q3" width="10" height="10" x="216" y="24"></rect><title>6 items on Wednesday May 6, 2020</title></g><g><rect class=" graph-rect" width="10" height="10" x="216" y="36"></rect><title>Thursday May 7, 2020</title></g><g><rect class=" graph-rect" width="10" height="10" x="216" y="48"></rect><title>Friday May 8, 2020</title></g><g><rect class=" graph-rect" width="10" height="10" x="216" y="60"></rect><title>Saturday May 9, 2020</title></g><g><rect class=" graph-rect r1 q1" width="10" height="10" x="216" y="72"></rect><title>2 items on Sunday May 10, 2020</title></g><g><rect class=" graph-rect" width="10" height="10" x="228" y="0"></rect><title>Monday May 11, 2020</title></g><g><rect class=" graph-rect r1 q1" width="10" height="10" x="228" y="12"></rect><title>1 item on Tuesday May 12, 2020</title></g><g><rect class=" graph-rect r4 q4" width="10" height="10" x="228" y="24"></rect><title>12 items on Wednesday May 13, 2020</title></g><g><rect class=" graph-rect r1 q1" width="10" height="10" x="228" y="36"></rect><title>2 items on Thursday May 14, 2020</title></g><g><rect class=" graph-rect" width="10" height="10" x="228" y="48"></rect><title>Friday May 15, 2020</title></g><g><rect class=" graph-rect" width="10" height="10" x="228" y="60"></rect><title>Saturday May 16, 2020</title></g><g><rect class=" graph-rect r5 q5" width="10" height="10" x="228" y="72"></rect><title>21 items on Sunday May 17, 2020</title></g><g><rect class=" graph-rect" width="10" height="10" x="240" y="0"></rect><title>Monday May 18, 2020</title></g><g><rect class=" graph-rect" width="10" height="10" x="240" y="12"></rect><title>Tuesday May 19, 2020</title></g><g><rect class=" graph-rect r3 q3" width="10" height="10" x="240" y="24"></rect><title>10 items on Wednesday May 20, 2020</title></g><g><rect class=" graph-rect" width="10" height="10" x="240" y="36"></rect><title>Thursday May 21, 2020</title></g><g><rect class=" graph-rect r3 q3" width="10" height="10" x="240" y="48"></rect><title>5 items on Friday May 22, 2020</title></g><g><rect class=" graph-rect" width="10" height="10" x="240" y="60"></rect><title>Saturday May 23, 2020</title></g><g><rect class=" graph-rect r2 q2" width="10" height="10" x="240" y="72"></rect><title>3 items on Sunday May 24, 2020</title></g><g><rect class=" graph-rect r3 q3" width="10" height="10" x="252" y="0"></rect><title>7 items on Monday May 25, 2020</title></g><g><rect class=" graph-rect r3 q3" width="10" height="10" x="252" y="12"></rect><title>6 items on Tuesday May 26, 2020</title></g><g><rect class=" graph-rect r3 q3" width="10" height="10" x="252" y="24"></rect><title>5 items on Wednesday May 27, 2020</title></g><g><rect class=" graph-rect r1 q1" width="10" height="10" x="252" y="36"></rect><title>2 items on Thursday May 28, 2020</title></g><g><rect class=" graph-rect" width="10" height="10" x="252" y="48"></rect><title>Friday May 29, 2020</title></g><g><rect class=" graph-rect" width="10" height="10" x="252" y="60"></rect><title>Saturday May 30, 2020</title></g><g><rect class=" graph-rect r3 q3" width="10" height="10" x="252" y="72"></rect><title>9 items on Sunday May 31, 2020</title></g><g><rect class=" graph-rect r3 q3" width="10" height="10" x="264" y="0"></rect><title>5 items on Monday June 1, 2020</title></g><g><rect class=" graph-rect" width="10" height="10" x="264" y="12"></rect><title>Tuesday June 2, 2020</title></g><g><rect class=" graph-rect r4 q4" width="10" height="10" x="264" y="24"></rect><title>14 items on Wednesday June 3, 2020</title></g><g><rect class=" graph-rect" width="10" height="10" x="264" y="36"></rect><title>Thursday June 4, 2020</title></g><g><rect class=" graph-rect" width="10" height="10" x="264" y="48"></rect><title>Friday June 5, 2020</title></g><g><rect class=" graph-rect r1 q1" width="10" height="10" x="264" y="60"></rect><title>1 item on Saturday June 6, 2020</title></g><g><rect class=" graph-rect r5 q5" width="10" height="10" x="264" y="72"></rect><title>31 items on Sunday June 7, 2020</title></g><g><rect class=" graph-rect r5 q5" width="10" height="10" x="276" y="0"></rect><title>36 items on Monday June 8, 2020</title></g><g><rect class=" graph-rect" width="10" height="10" x="276" y="12"></rect><title>Tuesday June 9, 2020</title></g><g><rect class=" graph-rect r5 q5" width="10" height="10" x="276" y="24"></rect><title>45 items on Wednesday June 10, 2020</title></g><g><rect class=" graph-rect" width="10" height="10" x="276" y="36"></rect><title>Thursday June 11, 2020</title></g><g><rect class=" graph-rect" width="10" height="10" x="276" y="48"></rect><title>Friday June 12, 2020</title></g><g><rect class=" graph-rect r4 q4" width="10" height="10" x="276" y="60"></rect><title>12 items on Saturday June 13, 2020</title></g><g><rect class=" graph-rect" width="10" height="10" x="276" y="72"></rect><title>Sunday June 14, 2020</title></g><g><rect class=" graph-rect" width="10" height="10" x="288" y="0"></rect><title>Monday June 15, 2020</title></g><g><rect class=" graph-rect r2 q2" width="10" height="10" x="288" y="12"></rect><title>4 items on Tuesday June 16, 2020</title></g><g><rect class=" graph-rect" width="10" height="10" x="288" y="24"></rect><title>Wednesday June 17, 2020</title></g><g><rect class=" graph-rect" width="10" height="10" x="288" y="36"></rect><title>Thursday June 18, 2020</title></g><g><rect class=" graph-rect" width="10" height="10" x="288" y="48"></rect><title>Friday June 19, 2020</title></g><g><rect class=" graph-rect" width="10" height="10" x="288" y="60"></rect><title>Saturday June 20, 2020</title></g><g><rect class=" graph-rect" width="10" height="10" x="288" y="72"></rect><title>Sunday June 21, 2020</title></g><g><rect class=" graph-rect" width="10" height="10" x="300" y="0"></rect><title>Monday June 22, 2020</title></g><g><rect class=" graph-rect r1 q1" width="10" height="10" x="300" y="12"></rect><title>2 items on Tuesday June 23, 2020</title></g><g><rect class=" graph-rect r1 q1" width="10" height="10" x="300" y="24"></rect><title>1 item on Wednesday June 24, 2020</title></g><g><rect class=" graph-rect r2 q2" width="10" height="10" x="300" y="36"></rect><title>3 items on Thursday June 25, 2020</title></g><g><rect class=" graph-rect" width="10" height="10" x="300" y="48"></rect><title>Friday June 26, 2020</title></g><g><rect class=" graph-rect" width="10" height="10" x="300" y="60"></rect><title>Saturday June 27, 2020</title></g><g><rect class=" graph-rect r1 q1" width="10" height="10" x="300" y="72"></rect><title>1 item on Sunday June 28, 2020</title></g><g><rect class=" graph-rect r4 q4" width="10" height="10" x="312" y="0"></rect><title>12 items on Monday June 29, 2020</title></g><g><rect class=" graph-rect r4 q4" width="10" height="10" x="312" y="12"></rect><title>16 items on Tuesday June 30, 2020</title></g><g><rect class=" graph-rect r1 q1" width="10" height="10" x="312" y="24"></rect><title>1 item on Wednesday July 1, 2020</title></g><g><rect class=" graph-rect r3 q3" width="10" height="10" x="312" y="36"></rect><title>8 items on Thursday July 2, 2020</title></g><g><rect class=" graph-rect r4 q4" width="10" height="10" x="312" y="48"></rect><title>15 items on Friday July 3, 2020</title></g><g><rect class=" graph-rect" width="10" height="10" x="312" y="60"></rect><title>Saturday July 4, 2020</title></g><g><rect class=" graph-rect" width="10" height="10" x="312" y="72"></rect><title>Sunday July 5, 2020</title></g><g><rect class=" graph-rect r4 q4" width="10" height="10" x="324" y="0"></rect><title>15 items on Monday July 6, 2020</title></g><g><rect class=" graph-rect r4 q4" width="10" height="10" x="324" y="12"></rect><title>15 items on Tuesday July 7, 2020</title></g><g><rect class=" graph-rect r1 q1" width="10" height="10" x="324" y="24"></rect><title>1 item on Wednesday July 8, 2020</title></g><g><rect class=" graph-rect r2 q2" width="10" height="10" x="324" y="36"></rect><title>4 items on Thursday July 9, 2020</title></g><g><rect class=" graph-rect r3 q3" width="10" height="10" x="324" y="48"></rect><title>7 items on Friday July 10, 2020</title></g><g><rect class=" graph-rect r2 q2" width="10" height="10" x="324" y="60"></rect><title>3 items on Saturday July 11, 2020</title></g><g><rect class=" graph-rect" width="10" height="10" x="324" 
y="72"></rect><title>Sunday July 12, 2020</title></g><g><rect class=" graph-rect" width="10" height="10" x="336" y="0"></rect><title>Monday July 13, 2020</title></g><g><rect class=" graph-rect r3 q3" width="10" height="10" x="336" y="12"></rect><title>7 items on Tuesday July 14, 2020</title></g><g><rect class=" graph-rect r3 q3" width="10" height="10" x="336" y="24"></rect><title>10 items on Wednesday July 15, 2020</title></g><g><rect class=" graph-rect" width="10" height="10" x="336" y="36"></rect><title>Thursday July 16, 2020</title></g><g><rect class=" graph-rect r3 q3" width="10" height="10" x="336" y="48"></rect><title>6 items on Friday July 17, 2020</title></g><g><rect class=" graph-rect" width="10" height="10" x="336" y="60"></rect><title>Saturday July 18, 2020</title></g><g><rect class=" graph-rect" width="10" height="10" x="336" y="72"></rect><title>Sunday July 19, 2020</title></g><g><rect class=" graph-rect" width="10" height="10" x="348" y="0"></rect><title>Monday July 20, 2020</title></g><g><rect class=" graph-rect" width="10" height="10" x="348" y="12"></rect><title>Tuesday July 21, 2020</title></g><g><rect class=" graph-rect" width="10" height="10" x="348" y="24"></rect><title>Wednesday July 22, 2020</title></g><g><rect class=" graph-rect" width="10" height="10" x="348" y="36"></rect><title>Thursday July 23, 2020</title></g><g><rect class=" graph-rect" width="10" height="10" x="348" y="48"></rect><title>Friday July 24, 2020</title></g><g><rect class=" graph-rect" width="10" height="10" x="348" y="60"></rect><title>Saturday July 25, 2020</title></g><g><rect class=" graph-rect" width="10" height="10" x="348" y="72"></rect><title>Sunday July 26, 2020</title></g><g><rect class=" graph-rect" width="10" height="10" x="360" y="0"></rect><title>Monday July 27, 2020</title></g><g><rect class=" graph-rect" width="10" height="10" x="360" y="12"></rect><title>Tuesday July 28, 2020</title></g><g><rect class=" graph-rect" width="10" height="10" x="360" y="24"></rect><title>Wednesday July 29, 2020</title></g><g><rect class=" graph-rect" width="10" height="10" x="360" y="36"></rect><title>Thursday July 30, 2020</title></g><g><rect class=" graph-rect" width="10" height="10" x="360" y="48"></rect><title>Friday July 31, 2020</title></g><g><rect class=" graph-rect" width="10" height="10" x="360" y="60"></rect><title>Saturday August 1, 2020</title></g><g><rect class=" graph-rect" width="10" height="10" x="360" y="72"></rect><title>Sunday August 2, 2020</title></g><g><rect class=" graph-rect" width="10" height="10" x="372" y="0"></rect><title>Monday August 3, 2020</title></g><g><rect class=" graph-rect r1 q1" width="10" height="10" x="372" y="12"></rect><title>1 item on Tuesday August 4, 2020</title></g><g><rect class=" graph-rect" width="10" height="10" x="372" y="24"></rect><title>Wednesday August 5, 2020</title></g><g><rect class=" graph-rect" width="10" height="10" x="372" y="36"></rect><title>Thursday August 6, 2020</title></g><g><rect class=" graph-rect" width="10" height="10" x="372" y="48"></rect><title>Friday August 7, 2020</title></g><g><rect class=" graph-rect r1 q1" width="10" height="10" x="372" y="60"></rect><title>2 items on Saturday August 8, 2020</title></g><g><rect class=" graph-rect" width="10" height="10" x="372" y="72"></rect><title>Sunday August 9, 2020</title></g><g><rect class=" graph-rect" width="10" height="10" x="384" y="0"></rect><title>Monday August 10, 2020</title></g><g><rect class=" graph-rect" width="10" height="10" x="384" y="12"></rect><title>Tuesday August 11, 2020</title></g><g><rect class=" graph-rect" width="10" height="10" x="384" y="24"></rect><title>Wednesday August 12, 2020</title></g><g><rect class=" graph-rect" width="10" height="10" x="384" y="36"></rect><title>Thursday August 13, 2020</title></g><g><rect class=" graph-rect" width="10" height="10" x="384" y="48"></rect><title>Friday August 14, 2020</title></g><g><rect class=" graph-rect" width="10" height="10" x="384" y="60"></rect><title>Saturday August 15, 2020</title></g><g><rect class=" graph-rect" width="10" height="10" x="384" y="72"></rect><title>Sunday August 16, 2020</title></g><g><rect class=" graph-rect" width="10" height="10" x="396" y="0"></rect><title>Monday August 17, 2020</title></g><g><rect class=" graph-rect" width="10" height="10" x="396" y="12"></rect><title>Tuesday August 18, 2020</title></g><g><rect class=" graph-rect r1 q1" width="10" height="10" x="396" y="24"></rect><title>2 items on Wednesday August 19, 2020</title></g><g><rect class=" graph-rect r3 q3" width="10" height="10" x="396" y="36"></rect><title>10 items on Thursday August 20, 2020</title></g><g><rect class=" graph-rect" width="10" height="10" x="396" y="48"></rect><title>Friday August 21, 2020</title></g><g><rect class=" graph-rect r1 q1" width="10" height="10" x="396" y="60"></rect><title>1 item on Saturday August 22, 2020</title></g><g><rect class=" graph-rect" width="10" height="10" x="396" y="72"></rect><title>Sunday August 23, 2020</title></g><g><rect class=" graph-rect" width="10" height="10" x="408" y="0"></rect><title>Monday August 24, 2020</title></g><g><rect class=" graph-rect" width="10" height="10" x="408" y="12"></rect><title>Tuesday August 25, 2020</title></g><g><rect class=" graph-rect" width="10" height="10" x="408" y="24"></rect><title>Wednesday August 26, 2020</title></g><g><rect class=" graph-rect" width="10" height="10" x="408" y="36"></rect><title>Thursday August 27, 2020</title></g><g><rect class=" graph-rect r2 q2" width="10" height="10" x="408" y="48"></rect><title>4 items on Friday August 28, 2020</title></g><g><rect class=" graph-rect" width="10" height="10" x="408" y="60"></rect><title>Saturday August 29, 2020</title></g><g><rect class=" graph-rect r5 q5" width="10" height="10" x="408" y="72"></rect><title>28 items on Sunday August 30, 2020</title></g><g><rect class=" graph-rect r3 q3" width="10" height="10" x="420" y="0"></rect><title>5 items on Monday August 31, 2020</title></g><g><rect class=" graph-rect r3 q3" width="10" height="10" x="420" y="12"></rect><title>7 items on Tuesday September 1, 2020</title></g><g><rect class=" graph-rect" width="10" height="10" x="420" y="24"></rect><title>Wednesday September 2, 2020</title></g><g><rect class=" graph-rect" width="10" height="10" x="420" y="36"></rect><title>Thursday September 3, 2020</title></g><g><rect class=" graph-rect" width="10" height="10" x="420" y="48"></rect><title>Friday September 4, 2020</title></g><g><rect class=" graph-rect" width="10" height="10" x="420" y="60"></rect><title>Saturday September 5, 2020</title></g><g><rect class=" graph-rect" width="10" height="10" x="420" y="72"></rect><title>Sunday September 6, 2020</title></g><g><rect class=" graph-rect" width="10" height="10" x="432" y="0"></rect><title>Monday September 7, 2020</title></g><g><rect class=" graph-rect r3 q3" width="10" height="10" x="432" y="12"></rect><title>6 items on Tuesday September 8, 2020</title></g><g><rect class=" graph-rect r3 q3" width="10" height="10" x="432" y="24"></rect><title>7 items on Wednesday September 9, 2020</title></g><g><rect class=" 
graph-rect r3 q3" width="10" height="10" x="432" y="36"></rect><title>5 items on Thursday September 10, 2020</title></g><g><rect class=" graph-rect" width="10" height="10" x="432" y="48"></rect><title>Friday September 11, 2020</title></g><g><rect class=" graph-rect" width="10" height="10" x="432" y="60"></rect><title>Saturday September 12, 2020</title></g><g><rect class=" graph-rect r4 q4" width="10" height="10" x="432" y="72"></rect><title>12 items on Sunday September 13, 2020</title></g><g><rect class=" graph-rect" width="10" height="10" x="444" y="0"></rect><title>Monday September 14, 2020</title></g><g><rect class=" graph-rect r2 q2" width="10" height="10" x="444" y="12"></rect><title>4 items on Tuesday September 15, 2020</title></g><g><rect class=" graph-rect" width="10" height="10" x="444" y="24"></rect><title>Wednesday September 16, 2020</title></g><g><rect class=" graph-rect r1 q1" width="10" height="10" x="444" y="36"></rect><title>2 items on Thursday September 17, 2020</title></g><g><rect class=" graph-rect" width="10" height="10" x="444" y="48"></rect><title>Friday September 18, 2020</title></g><g><rect class=" graph-rect r3 q3" width="10" height="10" x="444" y="60"></rect><title>5 items on Saturday September 19, 2020</title></g><g><rect class=" graph-rect r2 q2" width="10" height="10" x="444" y="72"></rect><title>4 items on Sunday September 20, 2020</title></g><g><rect class=" graph-rect r4 q4" width="10" height="10" x="456" y="0"></rect><title>13 items on Monday September 21, 2020</title></g><g><rect class=" graph-rect" width="10" height="10" x="456" y="12"></rect><title>Tuesday September 22, 2020</title></g><g><rect class=" graph-rect r1 q1" width="10" height="10" x="456" y="24"></rect><title>1 item on Wednesday September 23, 2020</title></g><g><rect class=" graph-rect r3 q3" width="10" height="10" x="456" y="36"></rect><title>10 items on Thursday September 24, 2020</title></g><g><rect class=" graph-rect r2 q2" width="10" height="10" x="456" y="48"></rect><title>4 items on Friday September 25, 2020</title></g><g><rect class=" graph-rect" width="10" height="10" x="456" y="60"></rect><title>Saturday September 26, 2020</title></g><g><rect class=" graph-rect r1 q1" width="10" height="10" x="456" y="72"></rect><title>2 items on Sunday September 27, 2020</title></g><g><rect class=" graph-rect r3 q3" width="10" height="10" x="468" y="0"></rect><title>6 items on Monday September 28, 2020</title></g><g><rect class=" graph-rect r4 q4" width="10" height="10" x="468" y="12"></rect><title>18 items on Tuesday September 29, 2020</title></g><g><rect class=" graph-rect" width="10" height="10" x="468" y="24"></rect><title>Wednesday September 30, 2020</title></g><g><rect class=" graph-rect" width="10" height="10" x="468" y="36"></rect><title>Thursday October 1, 2020</title></g><g><rect class=" graph-rect" width="10" height="10" x="468" y="48"></rect><title>Friday October 2, 2020</title></g><g><rect class=" graph-rect" width="10" height="10" x="468" y="60"></rect><title>Saturday October 3, 2020</title></g><g><rect class=" graph-rect" width="10" height="10" x="468" y="72"></rect><title>Sunday October 4, 2020</title></g><g><rect class=" graph-rect r4 q4" width="10" height="10" x="480" y="0"></rect><title>12 items on Monday October 5, 2020</title></g><g><rect class=" graph-rect r2 q2" width="10" height="10" x="480" y="12"></rect><title>3 items on Tuesday October 6, 2020</title></g><g><rect class=" graph-rect" width="10" height="10" x="480" y="24"></rect><title>Wednesday October 7, 2020</title></g><g><rect 
class=" graph-rect r1 q1" width="10" height="10" x="480" y="36"></rect><title>2 items on Thursday October 8, 2020</title></g><g><rect class=" graph-rect" width="10" height="10" x="480" y="48"></rect><title>Friday October 9, 2020</title></g><g><rect class=" graph-rect" width="10" height="10" x="480" y="60"></rect><title>Saturday October 10, 2020</title></g><g><rect class=" graph-rect" width="10" height="10" x="480" y="72"></rect><title>Sunday October 11, 2020</title></g><g><rect class=" graph-rect r3 q3" width="10" height="10" x="492" y="0"></rect><title>7 items on Monday October 12, 2020</title></g><g><rect class=" graph-rect" width="10" height="10" x="492" y="12"></rect><title>Tuesday October 13, 2020</title></g><g><rect class=" graph-rect r3 q3" width="10" height="10" x="492" y="24"></rect><title>9 items on Wednesday October 14, 2020</title></g><g><rect class=" graph-rect r2 q2" width="10" height="10" x="492" y="36"></rect><title>3 items on Thursday October 15, 2020</title></g><g><rect class=" graph-rect r5 q5" width="10" height="10" x="492" y="48"></rect><title>21 items on Friday October 16, 2020</title></g><g><rect class=" graph-rect" width="10" height="10" x="492" y="60"></rect><title>Saturday October 17, 2020</title></g><g><rect class=" graph-rect" width="10" height="10" x="492" y="72"></rect><title>Sunday October 18, 2020</title></g><g><rect class=" graph-rect" width="10" height="10" x="504" y="0"></rect><title>Monday October 19, 2020</title></g><g><rect class=" graph-rect r2 q2" width="10" height="10" x="504" y="12"></rect><title>3 items on Tuesday October 20, 2020</title></g><g><rect class=" graph-rect" width="10" height="10" x="504" y="24"></rect><title>Wednesday October 21, 2020</title></g><g><rect class=" graph-rect r1 q1" width="10" height="10" x="504" y="36"></rect><title>2 items on Thursday October 22, 2020</title></g><g><rect class=" graph-rect r3 q3" width="10" height="10" x="504" y="48"></rect><title>7 items on Friday October 23, 2020</title></g><g><rect class=" graph-rect" width="10" height="10" x="504" y="60"></rect><title>Saturday October 24, 2020</title></g><g><rect class=" graph-rect r4 q4" width="10" height="10" x="504" y="72"></rect><title>19 items on Sunday October 25, 2020</title></g><g><rect class=" graph-rect r3 q3" width="10" height="10" x="516" y="0"></rect><title>7 items on Monday October 26, 2020</title></g><g><rect class=" graph-rect r4 q4" width="10" height="10" x="516" y="12"></rect><title>13 items on Tuesday October 27, 2020</title></g><g><rect class=" graph-rect r3 q3" width="10" height="10" x="516" y="24"></rect><title>6 items on Wednesday October 28, 2020</title></g><g><rect class=" graph-rect" width="10" height="10" x="516" y="36"></rect><title>Thursday October 29, 2020</title></g><g><rect class=" graph-rect r3 q3" width="10" height="10" x="516" y="48"></rect><title>10 items on Friday October 30, 2020</title></g><g><rect class=" graph-rect" width="10" height="10" x="516" y="60"></rect><title>Saturday October 31, 2020</title></g><g><rect class=" graph-rect r3 q3" width="10" height="10" x="516" y="72"></rect><title>5 items on Sunday November 1, 2020</title></g><g><rect class=" graph-rect" width="10" height="10" x="528" y="0"></rect><title>Monday November 2, 2020</title></g><g><rect class=" 
graph-rect" width="10" height="10" x="528" y="12"></rect><title>Tuesday November 3, 2020</title></g><g><rect class=" graph-rect" width="10" height="10" x="528" y="24"></rect><title>Wednesday November 4, 2020</title></g><g><rect class=" graph-rect r4 q4" width="10" height="10" x="528" y="36"></rect><title>11 items on Thursday November 5, 2020</title></g><g><rect class=" graph-rect r3 q3" width="10" height="10" x="528" y="48"></rect><title>10 items on Friday November 6, 2020</title></g><g><rect class=" graph-rect r3 q3" width="10" height="10" x="528" y="60"></rect><title>6 items on Saturday November 7, 2020</title></g><g><rect class=" graph-rect r1 q1" width="10" height="10" x="528" y="72"></rect><title>1 item on Sunday November 8, 2020</title></g><g><rect class=" graph-rect r3 q3" width="10" height="10" x="540" 
y="0"></rect><title>5 items on Monday November 9, 2020</title></g><g><rect class=" graph-rect r2 q2" width="10" height="10" x="540" y="12"></rect><title>3 items on Tuesday November 10, 2020</title></g><g><rect class=" graph-rect r2 q2" width="10" height="10" x="540" y="24"></rect><title>4 items on Wednesday November 11, 2020</title></g><g><rect class=" graph-rect" width="10" height="10" x="540" y="36"></rect><title>Thursday November 12, 2020</title></g><g><rect class=" graph-rect" width="10" height="10" x="540" y="48"></rect><title>Friday November 13, 2020</title></g><g><rect class=" graph-rect r3 q3" width="10" height="10" x="540" y="60"></rect><title>9 items on Saturday November 14, 2020</title></g><g><rect class=" graph-rect r2 q2" width="10" height="10" x="540" y="72"></rect><title>4 items on Sunday November 15, 2020</title></g><g><rect class=" graph-rect r1 q1" width="10" height="10" x="552" y="0"></rect><title>1 item on Monday November 16, 2020</title></g><g><rect class=" graph-rect r1 q1" width="10" height="10" x="552" y="12"></rect><title>1 item on Tuesday November 17, 2020</title></g><g><rect class=" graph-rect" width="10" height="10" x="552" y="24"></rect><title>Wednesday November 18, 2020</title></g><g><rect class=" graph-rect" width="10" height="10" x="552" y="36"></rect><title>Thursday November 19, 2020</title></g><g><rect class=" graph-rect r1 q1" width="10" height="10" x="552" y="48"></rect><title>2 items on Friday November 20, 2020</title></g><g><rect class=" graph-rect" width="10" height="10" x="552" y="60"></rect><title>Saturday November 21, 2020</title></g><g><rect class=" graph-rect r3 q3" width="10" height="10" x="552" y="72"></rect><title>8 items on Sunday November 22, 2020</title></g><g><rect class=" graph-rect r3 q3" width="10" height="10" x="564" y="0"></rect><title>7 items on Monday November 23, 2020</title></g><g><rect class=" graph-rect r4 q4" width="10" height="10" x="564" y="12"></rect><title>11 items on Tuesday November 24, 2020</title></g><g><rect class=" graph-rect" width="10" height="10" x="564" y="24"></rect><title>Wednesday November 25, 2020</title></g><g><rect class=" graph-rect" width="10" height="10" x="564" y="36"></rect><title>Thursday November 26, 2020</title></g><g><rect class=" graph-rect r3 q3" width="10" height="10" x="564" y="48"></rect><title>5 items on Friday November 27, 2020</title></g><g><rect class=" graph-rect r4 q4" width="10" height="10" x="564" y="60"></rect><title>18 items on Saturday November 28, 2020</title></g><g><rect class=" graph-rect" width="10" height="10" x="564" y="72"></rect><title>Sunday November 29, 2020</title></g><g><rect class=" graph-rect r5 q5" width="10" height="10" x="576" y="0"></rect><title>44 items on Monday November 30, 2020</title></g><g><rect class=" graph-rect" width="10" height="10" x="576" y="12"></rect><title>Tuesday December 1, 2020</title></g><g><rect class=" graph-rect r3 q3" width="10" height="10" x="576" y="24"></rect><title>6 items on Wednesday December 2, 2020</title></g><g><rect class=" graph-rect r1 q1" width="10" height="10" x="576" y="36"></rect><title>2 items on Thursday December 3, 2020</title></g><g><rect class=" graph-rect" width="10" height="10" x="576" y="48"></rect><title>Friday December 4, 2020</title></g><g><rect class=" graph-rect r3 q3" width="10" height="10" x="576" y="60"></rect><title>5 items on Saturday December 5, 2020</title></g><g><rect class=" graph-rect" width="10" height="10" x="576" y="72"></rect><title>Sunday December 6, 2020</title></g><g><rect class=" graph-rect r2 q2" width="10" height="10" x="588" y="0"></rect><title>3 items on Monday December 7, 2020</title></g><g><rect class=" graph-rect r1 q1" width="10" height="10" x="588" y="12"></rect><title>2 items on Tuesday December 8, 2020</title></g><g><rect class=" graph-rect r3 q3" width="10" height="10" x="588" y="24"></rect><title>10 items on Wednesday December 9, 2020</title></g><g><rect class=" graph-rect" width="10" height="10" x="588" y="36"></rect><title>Thursday December 10, 2020</title></g><g><rect class=" graph-rect r3 q3" width="10" height="10" x="588" y="48"></rect><title>5 items on Friday December 11, 2020</title></g><g><rect class=" graph-rect r1 q1" width="10" height="10" x="588" y="60"></rect><title>2 items on Saturday December 12, 2020</title></g><g><rect class=" graph-rect" width="10" height="10" x="588" y="72"></rect><title>Sunday December 13, 2020</title></g><g><rect class=" graph-rect r3 q3" width="10" height="10" x="600" y="0"></rect><title>8 items on Monday December 14, 2020</title></g><g><rect class=" graph-rect r3 q3" width="10" height="10" x="600" y="12"></rect><title>10 items on Tuesday December 15, 2020</title></g><g><rect class=" graph-rect" width="10" height="10" x="600" y="24"></rect><title>Wednesday December 16, 2020</title></g><g><rect class=" graph-rect" width="10" height="10" x="600" y="36"></rect><title>Thursday December 17, 2020</title></g><g><rect class=" graph-rect r2 q2" width="10" height="10" x="600" y="48"></rect><title>3 items on Friday December 18, 2020</title></g><g><rect class=" graph-rect" width="10" height="10" x="600" y="60"></rect><title>Saturday December 19, 2020</title></g><g><rect class=" graph-rect" width="10" height="10" x="600" y="72"></rect><title>Sunday December 20, 2020</title></g><g><rect class=" graph-rect" width="10" height="10" x="612" y="0"></rect><title>Monday December 21, 2020</title></g><g><rect class=" graph-rect r3 q3" width="10" height="10" x="612" y="12"></rect><title>7 items on Tuesday December 22, 2020</title></g><g><rect class=" graph-rect" width="10" height="10" x="612" y="24"></rect><title>Wednesday December 23, 2020</title></g><g><rect class=" graph-rect r1 q1" width="10" height="10" x="612" y="36"></rect><title>1 item on Thursday December 24, 2020</title></g><g><rect class=" graph-rect" width="10" height="10" x="612" y="48"></rect><title>Friday December 25, 2020</title></g><g><rect class=" graph-rect" width="10" height="10" x="612" y="60"></rect><title>Saturday December 26, 2020</title></g><g><rect class=" graph-rect" width="10" height="10" x="612" y="72"></rect><title>Sunday December 27, 2020</title></g><g><rect class=" graph-rect r2 q2" width="10" height="10" x="624" y="0"></rect><title>3 items on Monday December 28, 2020</title></g><g><rect class=" graph-rect r2 q2" width="10" height="10" x="624" y="12"></rect><title>3 items on Tuesday December 29, 2020</title></g><g><rect class=" graph-rect r2 q2" width="10" height="10" x="624" y="24"></rect><title>3 items on Wednesday December 30, 2020</title></g><g><rect class=" graph-rect" width="10" height="10" x="624" y="36"></rect><title>Thursday December 31, 2020</title></g></svg><text class="graph-label" y="96.5" x="318" text-anchor="middle" dominant-baseline="middle">2020</text></svg></svg><svg x="0" y="117" class="graph-legend" height="10" width="58"><g><rect width="10" height="10" x="0" class="r1 q1" fill-opacity="0"><title>less than 2 items</title></rect><rect width="10" height="10" x="12" class="r2 q2" fill-opacity="0"><title>between 2 and 4 items</title></rect><rect width="10" height="10" x="24" class="r3 q3" fill-opacity="0"><title>between 4 and 10 items</title></rect><rect width="10" height="10" x="36" class="r4 q4" fill-opacity="0"><title>between 10 and 20 items</title></rect><rect width="10" height="10" x="48" class="r5 q5" fill-opacity="0"><title>more than 20 items</title></rect></g></svg></svg>